M48
; DRILL file {KiCad (5.1.9)-1} date 04/08/22 15:22:59
; FORMAT={-:-/ absolute / inch / decimal}
; #@! TF.CreationDate,2022-04-08T15:22:59-04:00
; #@! TF.GenerationSoftware,Kicad,Pcbnew,(5.1.9)-1
; #@! TF.FileFunction,Plated,1,2,PTH
FMAT,2
INCH
T1C0.0315
T2C0.0354
T3C0.0394
T4C0.0433
T5C0.0591
T6C0.0669
T7C0.0984
%
G90
G05
T1
X4.15Y-2.85
X4.15Y-2.95
X4.15Y-3.05
X4.15Y-3.15
X4.15Y-3.45
X4.15Y-3.55
X4.15Y-3.65
X4.15Y-3.75
X4.15Y-4.05
X4.15Y-4.15
X4.15Y-4.25
X4.15Y-4.35
X4.45Y-2.85
X4.45Y-2.95
X4.45Y-3.05
X4.45Y-3.15
X4.45Y-3.45
X4.45Y-3.55
X4.45Y-3.65
X4.45Y-3.75
X4.45Y-4.05
X4.45Y-4.15
X4.45Y-4.25
X4.45Y-4.35
T2
X6.1Y-3.05
X6.1Y-4.25
X6.15Y-3.05
X6.15Y-4.25
X6.2Y-3.05
X6.2Y-4.25
X6.25Y-3.05
X6.25Y-4.25
X7.35Y-3.05
X7.35Y-4.25
X7.4Y-3.05
X7.4Y-4.25
X7.45Y-3.05
X7.45Y-4.25
X7.5Y-3.05
X7.5Y-4.25
T3
X4.15Y-2.55
X4.25Y-2.55
X4.35Y-2.55
T4
X3.4689Y-2.85
X3.4689Y-3.15
X3.4689Y-3.45
X3.4689Y-3.75
X3.4689Y-4.05
X3.4689Y-4.35
X3.65Y-2.85
X3.65Y-3.15
X3.65Y-3.45
X3.65Y-3.75
X3.65Y-4.05
X3.65Y-4.35
X4.7Y-2.85
X4.7Y-3.0311
X4.7Y-3.45
X4.7Y-3.6311
X4.7Y-4.05
X4.7Y-4.2311
X5.0Y-2.85
X5.0Y-3.0311
X5.0Y-3.45
X5.0Y-3.6311
X5.0Y-4.05
X5.0Y-4.2311
T5
X2.95Y-2.95
X2.95Y-3.5
X2.95Y-4.05
T6
X2.85Y-2.85
X2.85Y-3.05
X2.85Y-3.4
X2.85Y-3.6
X2.85Y-3.95
X2.85Y-4.15
X3.05Y-2.85
X3.05Y-3.05
X3.05Y-3.4
X3.05Y-3.6
X3.05Y-3.95
X3.05Y-4.15
T7
X5.5Y-2.65
X5.5Y-4.6
X8.15Y-2.65
X8.15Y-4.6
T0
M30
