%TF.GenerationSoftware,KiCad,Pcbnew,(5.1.9)-1*%
%TF.CreationDate,2022-04-08T15:22:57-04:00*%
%TF.ProjectId,March_PCB_Design_2_2b2848RGB,4d617263-685f-4504-9342-5f4465736967,rev?*%
%TF.SameCoordinates,Original*%
%TF.FileFunction,Copper,L1,Top*%
%TF.FilePolarity,Positive*%
%FSLAX46Y46*%
G04 Gerber Fmt 4.6, Leading zero omitted, Abs format (unit mm)*
G04 Created by KiCad (PCBNEW (5.1.9)-1) date 2022-04-08 15:22:57*
%MOMM*%
%LPD*%
G01*
G04 APERTURE LIST*
%TA.AperFunction,NonConductor*%
%ADD10C,0.300000*%
%TD*%
%TA.AperFunction,NonConductor*%
%ADD11C,0.150000*%
%TD*%
%TA.AperFunction,ComponentPad*%
%ADD12O,1.600000X1.600000*%
%TD*%
%TA.AperFunction,ComponentPad*%
%ADD13R,1.600000X1.600000*%
%TD*%
%TA.AperFunction,ComponentPad*%
%ADD14O,1.700000X1.700000*%
%TD*%
%TA.AperFunction,ComponentPad*%
%ADD15R,1.700000X1.700000*%
%TD*%
%TA.AperFunction,ComponentPad*%
%ADD16O,1.070000X1.800000*%
%TD*%
%TA.AperFunction,ComponentPad*%
%ADD17R,1.070000X1.800000*%
%TD*%
%TA.AperFunction,ComponentPad*%
%ADD18C,2.900000*%
%TD*%
%TA.AperFunction,ConnectorPad*%
%ADD19C,5.000000*%
%TD*%
%TA.AperFunction,ComponentPad*%
%ADD20C,2.100000*%
%TD*%
%TA.AperFunction,ComponentPad*%
%ADD21C,2.250000*%
%TD*%
%TA.AperFunction,ComponentPad*%
%ADD22C,2.050000*%
%TD*%
%TA.AperFunction,Conductor*%
%ADD23C,0.250000*%
%TD*%
G04 APERTURE END LIST*
D10*
X65182857Y-75608571D02*
X64682857Y-74894285D01*
X64325714Y-75608571D02*
X64325714Y-74108571D01*
X64897142Y-74108571D01*
X65040000Y-74180000D01*
X65111428Y-74251428D01*
X65182857Y-74394285D01*
X65182857Y-74608571D01*
X65111428Y-74751428D01*
X65040000Y-74822857D01*
X64897142Y-74894285D01*
X64325714Y-74894285D01*
X66397142Y-75537142D02*
X66254285Y-75608571D01*
X65968571Y-75608571D01*
X65825714Y-75537142D01*
X65754285Y-75394285D01*
X65754285Y-74822857D01*
X65825714Y-74680000D01*
X65968571Y-74608571D01*
X66254285Y-74608571D01*
X66397142Y-74680000D01*
X66468571Y-74822857D01*
X66468571Y-74965714D01*
X65754285Y-75108571D01*
X67754285Y-75608571D02*
X67754285Y-74108571D01*
X67754285Y-75537142D02*
X67611428Y-75608571D01*
X67325714Y-75608571D01*
X67182857Y-75537142D01*
X67111428Y-75465714D01*
X67040000Y-75322857D01*
X67040000Y-74894285D01*
X67111428Y-74751428D01*
X67182857Y-74680000D01*
X67325714Y-74608571D01*
X67611428Y-74608571D01*
X67754285Y-74680000D01*
X64004285Y-88150000D02*
X63861428Y-88078571D01*
X63647142Y-88078571D01*
X63432857Y-88150000D01*
X63290000Y-88292857D01*
X63218571Y-88435714D01*
X63147142Y-88721428D01*
X63147142Y-88935714D01*
X63218571Y-89221428D01*
X63290000Y-89364285D01*
X63432857Y-89507142D01*
X63647142Y-89578571D01*
X63790000Y-89578571D01*
X64004285Y-89507142D01*
X64075714Y-89435714D01*
X64075714Y-88935714D01*
X63790000Y-88935714D01*
X64718571Y-89578571D02*
X64718571Y-88578571D01*
X64718571Y-88864285D02*
X64790000Y-88721428D01*
X64861428Y-88650000D01*
X65004285Y-88578571D01*
X65147142Y-88578571D01*
X66218571Y-89507142D02*
X66075714Y-89578571D01*
X65790000Y-89578571D01*
X65647142Y-89507142D01*
X65575714Y-89364285D01*
X65575714Y-88792857D01*
X65647142Y-88650000D01*
X65790000Y-88578571D01*
X66075714Y-88578571D01*
X66218571Y-88650000D01*
X66290000Y-88792857D01*
X66290000Y-88935714D01*
X65575714Y-89078571D01*
X67504285Y-89507142D02*
X67361428Y-89578571D01*
X67075714Y-89578571D01*
X66932857Y-89507142D01*
X66861428Y-89364285D01*
X66861428Y-88792857D01*
X66932857Y-88650000D01*
X67075714Y-88578571D01*
X67361428Y-88578571D01*
X67504285Y-88650000D01*
X67575714Y-88792857D01*
X67575714Y-88935714D01*
X66861428Y-89078571D01*
X68218571Y-88578571D02*
X68218571Y-89578571D01*
X68218571Y-88721428D02*
X68290000Y-88650000D01*
X68432857Y-88578571D01*
X68647142Y-88578571D01*
X68790000Y-88650000D01*
X68861428Y-88792857D01*
X68861428Y-89578571D01*
X64432857Y-102762857D02*
X64647142Y-102834285D01*
X64718571Y-102905714D01*
X64790000Y-103048571D01*
X64790000Y-103262857D01*
X64718571Y-103405714D01*
X64647142Y-103477142D01*
X64504285Y-103548571D01*
X63932857Y-103548571D01*
X63932857Y-102048571D01*
X64432857Y-102048571D01*
X64575714Y-102120000D01*
X64647142Y-102191428D01*
X64718571Y-102334285D01*
X64718571Y-102477142D01*
X64647142Y-102620000D01*
X64575714Y-102691428D01*
X64432857Y-102762857D01*
X63932857Y-102762857D01*
X65647142Y-103548571D02*
X65504285Y-103477142D01*
X65432857Y-103334285D01*
X65432857Y-102048571D01*
X66861428Y-102548571D02*
X66861428Y-103548571D01*
X66218571Y-102548571D02*
X66218571Y-103334285D01*
X66290000Y-103477142D01*
X66432857Y-103548571D01*
X66647142Y-103548571D01*
X66790000Y-103477142D01*
X66861428Y-103405714D01*
X68147142Y-103477142D02*
X68004285Y-103548571D01*
X67718571Y-103548571D01*
X67575714Y-103477142D01*
X67504285Y-103334285D01*
X67504285Y-102762857D01*
X67575714Y-102620000D01*
X67718571Y-102548571D01*
X68004285Y-102548571D01*
X68147142Y-102620000D01*
X68218571Y-102762857D01*
X68218571Y-102905714D01*
X67504285Y-103048571D01*
D11*
X85751428Y-116292380D02*
X85751428Y-117101904D01*
X85799047Y-117197142D01*
X85846666Y-117244761D01*
X85941904Y-117292380D01*
X86132380Y-117292380D01*
X86227619Y-117244761D01*
X86275238Y-117197142D01*
X86322857Y-117101904D01*
X86322857Y-116292380D01*
X87370476Y-117197142D02*
X87322857Y-117244761D01*
X87180000Y-117292380D01*
X87084761Y-117292380D01*
X86941904Y-117244761D01*
X86846666Y-117149523D01*
X86799047Y-117054285D01*
X86751428Y-116863809D01*
X86751428Y-116720952D01*
X86799047Y-116530476D01*
X86846666Y-116435238D01*
X86941904Y-116340000D01*
X87084761Y-116292380D01*
X87180000Y-116292380D01*
X87322857Y-116340000D01*
X87370476Y-116387619D01*
X87751428Y-117006666D02*
X88227619Y-117006666D01*
X87656190Y-117292380D02*
X87989523Y-116292380D01*
X88322857Y-117292380D01*
X88656190Y-117292380D02*
X88656190Y-116292380D01*
X89227619Y-117292380D01*
X89227619Y-116292380D01*
X90941904Y-117292380D02*
X90465714Y-117292380D01*
X90465714Y-116292380D01*
X91227619Y-117006666D02*
X91703809Y-117006666D01*
X91132380Y-117292380D02*
X91465714Y-116292380D01*
X91799047Y-117292380D01*
X92465714Y-116768571D02*
X92608571Y-116816190D01*
X92656190Y-116863809D01*
X92703809Y-116959047D01*
X92703809Y-117101904D01*
X92656190Y-117197142D01*
X92608571Y-117244761D01*
X92513333Y-117292380D01*
X92132380Y-117292380D01*
X92132380Y-116292380D01*
X92465714Y-116292380D01*
X92560952Y-116340000D01*
X92608571Y-116387619D01*
X92656190Y-116482857D01*
X92656190Y-116578095D01*
X92608571Y-116673333D01*
X92560952Y-116720952D01*
X92465714Y-116768571D01*
X92132380Y-116768571D01*
X93132380Y-117197142D02*
X93180000Y-117244761D01*
X93132380Y-117292380D01*
X93084761Y-117244761D01*
X93132380Y-117197142D01*
X93132380Y-117292380D01*
X93132380Y-116673333D02*
X93180000Y-116720952D01*
X93132380Y-116768571D01*
X93084761Y-116720952D01*
X93132380Y-116673333D01*
X93132380Y-116768571D01*
X94227619Y-116292380D02*
X94799047Y-116292380D01*
X94513333Y-117292380D02*
X94513333Y-116292380D01*
X95513333Y-117244761D02*
X95418095Y-117292380D01*
X95227619Y-117292380D01*
X95132380Y-117244761D01*
X95084761Y-117149523D01*
X95084761Y-116768571D01*
X95132380Y-116673333D01*
X95227619Y-116625714D01*
X95418095Y-116625714D01*
X95513333Y-116673333D01*
X95560952Y-116768571D01*
X95560952Y-116863809D01*
X95084761Y-116959047D01*
X96418095Y-117292380D02*
X96418095Y-116768571D01*
X96370476Y-116673333D01*
X96275238Y-116625714D01*
X96084761Y-116625714D01*
X95989523Y-116673333D01*
X96418095Y-117244761D02*
X96322857Y-117292380D01*
X96084761Y-117292380D01*
X95989523Y-117244761D01*
X95941904Y-117149523D01*
X95941904Y-117054285D01*
X95989523Y-116959047D01*
X96084761Y-116911428D01*
X96322857Y-116911428D01*
X96418095Y-116863809D01*
X96894285Y-117292380D02*
X96894285Y-116625714D01*
X96894285Y-116720952D02*
X96941904Y-116673333D01*
X97037142Y-116625714D01*
X97180000Y-116625714D01*
X97275238Y-116673333D01*
X97322857Y-116768571D01*
X97322857Y-117292380D01*
X97322857Y-116768571D02*
X97370476Y-116673333D01*
X97465714Y-116625714D01*
X97608571Y-116625714D01*
X97703809Y-116673333D01*
X97751428Y-116768571D01*
X97751428Y-117292380D01*
X99132380Y-116720952D02*
X99037142Y-116673333D01*
X98989523Y-116625714D01*
X98941904Y-116530476D01*
X98941904Y-116482857D01*
X98989523Y-116387619D01*
X99037142Y-116340000D01*
X99132380Y-116292380D01*
X99322857Y-116292380D01*
X99418095Y-116340000D01*
X99465714Y-116387619D01*
X99513333Y-116482857D01*
X99513333Y-116530476D01*
X99465714Y-116625714D01*
X99418095Y-116673333D01*
X99322857Y-116720952D01*
X99132380Y-116720952D01*
X99037142Y-116768571D01*
X98989523Y-116816190D01*
X98941904Y-116911428D01*
X98941904Y-117101904D01*
X98989523Y-117197142D01*
X99037142Y-117244761D01*
X99132380Y-117292380D01*
X99322857Y-117292380D01*
X99418095Y-117244761D01*
X99465714Y-117197142D01*
X99513333Y-117101904D01*
X99513333Y-116911428D01*
X99465714Y-116816190D01*
X99418095Y-116768571D01*
X99322857Y-116720952D01*
X99941904Y-117197142D02*
X99989523Y-117244761D01*
X99941904Y-117292380D01*
X99894285Y-117244761D01*
X99941904Y-117197142D01*
X99941904Y-117292380D01*
X99941904Y-116673333D02*
X99989523Y-116720952D01*
X99941904Y-116768571D01*
X99894285Y-116720952D01*
X99941904Y-116673333D01*
X99941904Y-116768571D01*
X101132380Y-117244761D02*
X101275238Y-117292380D01*
X101513333Y-117292380D01*
X101608571Y-117244761D01*
X101656190Y-117197142D01*
X101703809Y-117101904D01*
X101703809Y-117006666D01*
X101656190Y-116911428D01*
X101608571Y-116863809D01*
X101513333Y-116816190D01*
X101322857Y-116768571D01*
X101227619Y-116720952D01*
X101180000Y-116673333D01*
X101132380Y-116578095D01*
X101132380Y-116482857D01*
X101180000Y-116387619D01*
X101227619Y-116340000D01*
X101322857Y-116292380D01*
X101560952Y-116292380D01*
X101703809Y-116340000D01*
X102132380Y-117292380D02*
X102132380Y-116292380D01*
X102370476Y-116292380D01*
X102513333Y-116340000D01*
X102608571Y-116435238D01*
X102656190Y-116530476D01*
X102703809Y-116720952D01*
X102703809Y-116863809D01*
X102656190Y-117054285D01*
X102608571Y-117149523D01*
X102513333Y-117244761D01*
X102370476Y-117292380D01*
X102132380Y-117292380D01*
X102989523Y-116292380D02*
X103322857Y-117292380D01*
X103656190Y-116292380D01*
X104465714Y-117292380D02*
X103989523Y-117292380D01*
X103989523Y-116292380D01*
X105370476Y-117292380D02*
X105037142Y-116816190D01*
X104799047Y-117292380D02*
X104799047Y-116292380D01*
X105180000Y-116292380D01*
X105275238Y-116340000D01*
X105322857Y-116387619D01*
X105370476Y-116482857D01*
X105370476Y-116625714D01*
X105322857Y-116720952D01*
X105275238Y-116768571D01*
X105180000Y-116816190D01*
X104799047Y-116816190D01*
X106370476Y-117197142D02*
X106322857Y-117244761D01*
X106180000Y-117292380D01*
X106084761Y-117292380D01*
X105941904Y-117244761D01*
X105846666Y-117149523D01*
X105799047Y-117054285D01*
X105751428Y-116863809D01*
X105751428Y-116720952D01*
X105799047Y-116530476D01*
X105846666Y-116435238D01*
X105941904Y-116340000D01*
X106084761Y-116292380D01*
X106180000Y-116292380D01*
X106322857Y-116340000D01*
X106370476Y-116387619D01*
X107418095Y-116292380D02*
X107989523Y-116292380D01*
X107703809Y-117292380D02*
X107703809Y-116292380D01*
X108322857Y-117292380D02*
X108322857Y-116625714D01*
X108322857Y-116816190D02*
X108370476Y-116720952D01*
X108418095Y-116673333D01*
X108513333Y-116625714D01*
X108608571Y-116625714D01*
X109370476Y-117292380D02*
X109370476Y-116768571D01*
X109322857Y-116673333D01*
X109227619Y-116625714D01*
X109037142Y-116625714D01*
X108941904Y-116673333D01*
X109370476Y-117244761D02*
X109275238Y-117292380D01*
X109037142Y-117292380D01*
X108941904Y-117244761D01*
X108894285Y-117149523D01*
X108894285Y-117054285D01*
X108941904Y-116959047D01*
X109037142Y-116911428D01*
X109275238Y-116911428D01*
X109370476Y-116863809D01*
X109846666Y-116625714D02*
X109846666Y-117292380D01*
X109846666Y-116720952D02*
X109894285Y-116673333D01*
X109989523Y-116625714D01*
X110132380Y-116625714D01*
X110227619Y-116673333D01*
X110275238Y-116768571D01*
X110275238Y-117292380D01*
X110703809Y-117244761D02*
X110799047Y-117292380D01*
X110989523Y-117292380D01*
X111084761Y-117244761D01*
X111132380Y-117149523D01*
X111132380Y-117101904D01*
X111084761Y-117006666D01*
X110989523Y-116959047D01*
X110846666Y-116959047D01*
X110751428Y-116911428D01*
X110703809Y-116816190D01*
X110703809Y-116768571D01*
X110751428Y-116673333D01*
X110846666Y-116625714D01*
X110989523Y-116625714D01*
X111084761Y-116673333D01*
X111560952Y-117292380D02*
X111560952Y-116625714D01*
X111560952Y-116720952D02*
X111608571Y-116673333D01*
X111703809Y-116625714D01*
X111846666Y-116625714D01*
X111941904Y-116673333D01*
X111989523Y-116768571D01*
X111989523Y-117292380D01*
X111989523Y-116768571D02*
X112037142Y-116673333D01*
X112132380Y-116625714D01*
X112275238Y-116625714D01*
X112370476Y-116673333D01*
X112418095Y-116768571D01*
X112418095Y-117292380D01*
X112894285Y-117292380D02*
X112894285Y-116625714D01*
X112894285Y-116292380D02*
X112846666Y-116340000D01*
X112894285Y-116387619D01*
X112941904Y-116340000D01*
X112894285Y-116292380D01*
X112894285Y-116387619D01*
X113227619Y-116625714D02*
X113608571Y-116625714D01*
X113370476Y-116292380D02*
X113370476Y-117149523D01*
X113418095Y-117244761D01*
X113513333Y-117292380D01*
X113608571Y-117292380D01*
X113799047Y-116625714D02*
X114180000Y-116625714D01*
X113941904Y-116292380D02*
X113941904Y-117149523D01*
X113989523Y-117244761D01*
X114084761Y-117292380D01*
X114180000Y-117292380D01*
X114894285Y-117244761D02*
X114799047Y-117292380D01*
X114608571Y-117292380D01*
X114513333Y-117244761D01*
X114465714Y-117149523D01*
X114465714Y-116768571D01*
X114513333Y-116673333D01*
X114608571Y-116625714D01*
X114799047Y-116625714D01*
X114894285Y-116673333D01*
X114941904Y-116768571D01*
X114941904Y-116863809D01*
X114465714Y-116959047D01*
X115370476Y-117292380D02*
X115370476Y-116625714D01*
X115370476Y-116816190D02*
X115418095Y-116720952D01*
X115465714Y-116673333D01*
X115560952Y-116625714D01*
X115656190Y-116625714D01*
X116751428Y-116911428D02*
X117513333Y-116911428D01*
X118703809Y-117244761D02*
X118846666Y-117292380D01*
X119084761Y-117292380D01*
X119180000Y-117244761D01*
X119227619Y-117197142D01*
X119275238Y-117101904D01*
X119275238Y-117006666D01*
X119227619Y-116911428D01*
X119180000Y-116863809D01*
X119084761Y-116816190D01*
X118894285Y-116768571D01*
X118799047Y-116720952D01*
X118751428Y-116673333D01*
X118703809Y-116578095D01*
X118703809Y-116482857D01*
X118751428Y-116387619D01*
X118799047Y-116340000D01*
X118894285Y-116292380D01*
X119132380Y-116292380D01*
X119275238Y-116340000D01*
X119703809Y-116625714D02*
X119703809Y-117625714D01*
X119703809Y-116673333D02*
X119799047Y-116625714D01*
X119989523Y-116625714D01*
X120084761Y-116673333D01*
X120132380Y-116720952D01*
X120180000Y-116816190D01*
X120180000Y-117101904D01*
X120132380Y-117197142D01*
X120084761Y-117244761D01*
X119989523Y-117292380D01*
X119799047Y-117292380D01*
X119703809Y-117244761D01*
X120608571Y-117292380D02*
X120608571Y-116625714D01*
X120608571Y-116816190D02*
X120656190Y-116720952D01*
X120703809Y-116673333D01*
X120799047Y-116625714D01*
X120894285Y-116625714D01*
X121227619Y-117292380D02*
X121227619Y-116625714D01*
X121227619Y-116292380D02*
X121180000Y-116340000D01*
X121227619Y-116387619D01*
X121275238Y-116340000D01*
X121227619Y-116292380D01*
X121227619Y-116387619D01*
X121703809Y-116625714D02*
X121703809Y-117292380D01*
X121703809Y-116720952D02*
X121751428Y-116673333D01*
X121846666Y-116625714D01*
X121989523Y-116625714D01*
X122084761Y-116673333D01*
X122132380Y-116768571D01*
X122132380Y-117292380D01*
X123037142Y-116625714D02*
X123037142Y-117435238D01*
X122989523Y-117530476D01*
X122941904Y-117578095D01*
X122846666Y-117625714D01*
X122703809Y-117625714D01*
X122608571Y-117578095D01*
X123037142Y-117244761D02*
X122941904Y-117292380D01*
X122751428Y-117292380D01*
X122656190Y-117244761D01*
X122608571Y-117197142D01*
X122560952Y-117101904D01*
X122560952Y-116816190D01*
X122608571Y-116720952D01*
X122656190Y-116673333D01*
X122751428Y-116625714D01*
X122941904Y-116625714D01*
X123037142Y-116673333D01*
X124227619Y-116387619D02*
X124275238Y-116340000D01*
X124370476Y-116292380D01*
X124608571Y-116292380D01*
X124703809Y-116340000D01*
X124751428Y-116387619D01*
X124799047Y-116482857D01*
X124799047Y-116578095D01*
X124751428Y-116720952D01*
X124180000Y-117292380D01*
X124799047Y-117292380D01*
X125418095Y-116292380D02*
X125513333Y-116292380D01*
X125608571Y-116340000D01*
X125656190Y-116387619D01*
X125703809Y-116482857D01*
X125751428Y-116673333D01*
X125751428Y-116911428D01*
X125703809Y-117101904D01*
X125656190Y-117197142D01*
X125608571Y-117244761D01*
X125513333Y-117292380D01*
X125418095Y-117292380D01*
X125322857Y-117244761D01*
X125275238Y-117197142D01*
X125227619Y-117101904D01*
X125180000Y-116911428D01*
X125180000Y-116673333D01*
X125227619Y-116482857D01*
X125275238Y-116387619D01*
X125322857Y-116340000D01*
X125418095Y-116292380D01*
X126132380Y-116387619D02*
X126180000Y-116340000D01*
X126275238Y-116292380D01*
X126513333Y-116292380D01*
X126608571Y-116340000D01*
X126656190Y-116387619D01*
X126703809Y-116482857D01*
X126703809Y-116578095D01*
X126656190Y-116720952D01*
X126084761Y-117292380D01*
X126703809Y-117292380D01*
X127084761Y-116387619D02*
X127132380Y-116340000D01*
X127227619Y-116292380D01*
X127465714Y-116292380D01*
X127560952Y-116340000D01*
X127608571Y-116387619D01*
X127656190Y-116482857D01*
X127656190Y-116578095D01*
X127608571Y-116720952D01*
X127037142Y-117292380D01*
X127656190Y-117292380D01*
D12*
%TO.P,J6,8*%
%TO.N,+12V*%
X113030000Y-102870000D03*
%TO.P,J6,4*%
%TO.N,Net-(J6-Pad4)*%
X105410000Y-110490000D03*
%TO.P,J6,7*%
%TO.N,Net-(J6-Pad7)*%
X113030000Y-105410000D03*
%TO.P,J6,3*%
%TO.N,Net-(J6-Pad3)*%
X105410000Y-107950000D03*
%TO.P,J6,6*%
%TO.N,Net-(J6-Pad6)*%
X113030000Y-107950000D03*
%TO.P,J6,2*%
%TO.N,-12V*%
X105410000Y-105410000D03*
%TO.P,J6,5*%
%TO.N,Net-(J6-Pad5)*%
X113030000Y-110490000D03*
D13*
%TO.P,J6,1*%
%TO.N,Net-(J6-Pad1)*%
X105410000Y-102870000D03*
%TD*%
D14*
%TO.P,REF\u002A\u002A,3*%
%TO.N,+12V*%
X110490000Y-64770000D03*
%TO.P,REF\u002A\u002A,2*%
%TO.N,-12V*%
X107950000Y-64770000D03*
D15*
%TO.P,REF\u002A\u002A,1*%
%TO.N,GND*%
X105410000Y-64770000D03*
%TD*%
D16*
%TO.P,D3,4*%
%TO.N,Net-(D1-Pad4)*%
X158750000Y-107950000D03*
%TO.P,D3,3*%
%TO.N,GND*%
X157480000Y-107950000D03*
%TO.P,D3,2*%
%TO.N,Net-(D1-Pad2)*%
X156210000Y-107950000D03*
D17*
%TO.P,D3,1*%
%TO.N,Net-(D1-Pad1)*%
X154940000Y-107950000D03*
%TD*%
D18*
%TO.P,REF\u002A\u002A,1*%
%TO.N,N/C*%
X139700000Y-67310000D03*
D19*
X139700000Y-67310000D03*
%TD*%
D18*
%TO.P,REF\u002A\u002A,1*%
%TO.N,N/C*%
X139700000Y-116840000D03*
D19*
X139700000Y-116840000D03*
%TD*%
D18*
%TO.P,REF\u002A\u002A,1*%
%TO.N,N/C*%
X207010000Y-116840000D03*
D19*
X207010000Y-116840000D03*
%TD*%
%TO.P,REF\u002A\u002A,1*%
%TO.N,N/C*%
X207010000Y-67310000D03*
D18*
X207010000Y-67310000D03*
%TD*%
D20*
%TO.P,R12,2*%
%TO.N,Net-(J6-Pad1)*%
X127000000Y-102870000D03*
%TO.P,R12,1*%
%TO.N,Net-(D1-Pad1)*%
%TA.AperFunction,ComponentPad*%
G36*
G01*
X127800001Y-108520000D02*
X126199999Y-108520000D01*
G75*
G02*
X125950000Y-108270001I0J249999D01*
G01*
X125950000Y-106669999D01*
G75*
G02*
X126199999Y-106420000I249999J0D01*
G01*
X127800001Y-106420000D01*
G75*
G02*
X128050000Y-106669999I0J-249999D01*
G01*
X128050000Y-108270001D01*
G75*
G02*
X127800001Y-108520000I-249999J0D01*
G01*
G37*
%TD.AperFunction*%
%TD*%
%TO.P,R11,2*%
%TO.N,Net-(J5-Pad1)*%
X127000000Y-87630000D03*
%TO.P,R11,1*%
%TO.N,Net-(D1-Pad2)*%
%TA.AperFunction,ComponentPad*%
G36*
G01*
X127800001Y-93280000D02*
X126199999Y-93280000D01*
G75*
G02*
X125950000Y-93030001I0J249999D01*
G01*
X125950000Y-91429999D01*
G75*
G02*
X126199999Y-91180000I249999J0D01*
G01*
X127800001Y-91180000D01*
G75*
G02*
X128050000Y-91429999I0J-249999D01*
G01*
X128050000Y-93030001D01*
G75*
G02*
X127800001Y-93280000I-249999J0D01*
G01*
G37*
%TD.AperFunction*%
%TD*%
%TO.P,R10,2*%
%TO.N,Net-(J4-Pad1)*%
X127000000Y-72390000D03*
%TO.P,R10,1*%
%TO.N,Net-(D1-Pad4)*%
%TA.AperFunction,ComponentPad*%
G36*
G01*
X127800001Y-78040000D02*
X126199999Y-78040000D01*
G75*
G02*
X125950000Y-77790001I0J249999D01*
G01*
X125950000Y-76189999D01*
G75*
G02*
X126199999Y-75940000I249999J0D01*
G01*
X127800001Y-75940000D01*
G75*
G02*
X128050000Y-76189999I0J-249999D01*
G01*
X128050000Y-77790001D01*
G75*
G02*
X127800001Y-78040000I-249999J0D01*
G01*
G37*
%TD.AperFunction*%
%TD*%
%TO.P,R9,2*%
%TO.N,Net-(J6-Pad6)*%
X119380000Y-107470000D03*
%TO.P,R9,1*%
%TO.N,Net-(J6-Pad1)*%
%TA.AperFunction,ComponentPad*%
G36*
G01*
X118579999Y-101820000D02*
X120180001Y-101820000D01*
G75*
G02*
X120430000Y-102069999I0J-249999D01*
G01*
X120430000Y-103670001D01*
G75*
G02*
X120180001Y-103920000I-249999J0D01*
G01*
X118579999Y-103920000D01*
G75*
G02*
X118330000Y-103670001I0J249999D01*
G01*
X118330000Y-102069999D01*
G75*
G02*
X118579999Y-101820000I249999J0D01*
G01*
G37*
%TD.AperFunction*%
%TD*%
%TO.P,R8,2*%
%TO.N,Net-(J5-Pad6)*%
X119380000Y-92230000D03*
%TO.P,R8,1*%
%TO.N,Net-(J5-Pad1)*%
%TA.AperFunction,ComponentPad*%
G36*
G01*
X118579999Y-86580000D02*
X120180001Y-86580000D01*
G75*
G02*
X120430000Y-86829999I0J-249999D01*
G01*
X120430000Y-88430001D01*
G75*
G02*
X120180001Y-88680000I-249999J0D01*
G01*
X118579999Y-88680000D01*
G75*
G02*
X118330000Y-88430001I0J249999D01*
G01*
X118330000Y-86829999D01*
G75*
G02*
X118579999Y-86580000I249999J0D01*
G01*
G37*
%TD.AperFunction*%
%TD*%
%TO.P,R7,2*%
%TO.N,Net-(J4-Pad6)*%
X119380000Y-76990000D03*
%TO.P,R7,1*%
%TO.N,Net-(J4-Pad1)*%
%TA.AperFunction,ComponentPad*%
G36*
G01*
X118579999Y-71340000D02*
X120180001Y-71340000D01*
G75*
G02*
X120430000Y-71589999I0J-249999D01*
G01*
X120430000Y-73190001D01*
G75*
G02*
X120180001Y-73440000I-249999J0D01*
G01*
X118579999Y-73440000D01*
G75*
G02*
X118330000Y-73190001I0J249999D01*
G01*
X118330000Y-71589999D01*
G75*
G02*
X118579999Y-71340000I249999J0D01*
G01*
G37*
%TD.AperFunction*%
%TD*%
%TO.P,R6,2*%
%TO.N,Net-(J3-Pad1)*%
X88110000Y-102870000D03*
%TO.P,R6,1*%
%TO.N,Net-(J6-Pad3)*%
%TA.AperFunction,ComponentPad*%
G36*
G01*
X93760000Y-102069999D02*
X93760000Y-103670001D01*
G75*
G02*
X93510001Y-103920000I-249999J0D01*
G01*
X91909999Y-103920000D01*
G75*
G02*
X91660000Y-103670001I0J249999D01*
G01*
X91660000Y-102069999D01*
G75*
G02*
X91909999Y-101820000I249999J0D01*
G01*
X93510001Y-101820000D01*
G75*
G02*
X93760000Y-102069999I0J-249999D01*
G01*
G37*
%TD.AperFunction*%
%TD*%
%TO.P,R5,2*%
%TO.N,GND*%
X88110000Y-110490000D03*
%TO.P,R5,1*%
%TO.N,Net-(J6-Pad6)*%
%TA.AperFunction,ComponentPad*%
G36*
G01*
X93760000Y-109689999D02*
X93760000Y-111290001D01*
G75*
G02*
X93510001Y-111540000I-249999J0D01*
G01*
X91909999Y-111540000D01*
G75*
G02*
X91660000Y-111290001I0J249999D01*
G01*
X91660000Y-109689999D01*
G75*
G02*
X91909999Y-109440000I249999J0D01*
G01*
X93510001Y-109440000D01*
G75*
G02*
X93760000Y-109689999I0J-249999D01*
G01*
G37*
%TD.AperFunction*%
%TD*%
%TO.P,R4,2*%
%TO.N,Net-(J2-Pad1)*%
X88110000Y-87630000D03*
%TO.P,R4,1*%
%TO.N,Net-(J5-Pad3)*%
%TA.AperFunction,ComponentPad*%
G36*
G01*
X93760000Y-86829999D02*
X93760000Y-88430001D01*
G75*
G02*
X93510001Y-88680000I-249999J0D01*
G01*
X91909999Y-88680000D01*
G75*
G02*
X91660000Y-88430001I0J249999D01*
G01*
X91660000Y-86829999D01*
G75*
G02*
X91909999Y-86580000I249999J0D01*
G01*
X93510001Y-86580000D01*
G75*
G02*
X93760000Y-86829999I0J-249999D01*
G01*
G37*
%TD.AperFunction*%
%TD*%
%TO.P,R3,2*%
%TO.N,GND*%
X88110000Y-95250000D03*
%TO.P,R3,1*%
%TO.N,Net-(J5-Pad6)*%
%TA.AperFunction,ComponentPad*%
G36*
G01*
X93760000Y-94449999D02*
X93760000Y-96050001D01*
G75*
G02*
X93510001Y-96300000I-249999J0D01*
G01*
X91909999Y-96300000D01*
G75*
G02*
X91660000Y-96050001I0J249999D01*
G01*
X91660000Y-94449999D01*
G75*
G02*
X91909999Y-94200000I249999J0D01*
G01*
X93510001Y-94200000D01*
G75*
G02*
X93760000Y-94449999I0J-249999D01*
G01*
G37*
%TD.AperFunction*%
%TD*%
%TO.P,R2,2*%
%TO.N,Net-(J1-Pad1)*%
X88110000Y-72390000D03*
%TO.P,R2,1*%
%TO.N,Net-(J4-Pad3)*%
%TA.AperFunction,ComponentPad*%
G36*
G01*
X93760000Y-71589999D02*
X93760000Y-73190001D01*
G75*
G02*
X93510001Y-73440000I-249999J0D01*
G01*
X91909999Y-73440000D01*
G75*
G02*
X91660000Y-73190001I0J249999D01*
G01*
X91660000Y-71589999D01*
G75*
G02*
X91909999Y-71340000I249999J0D01*
G01*
X93510001Y-71340000D01*
G75*
G02*
X93760000Y-71589999I0J-249999D01*
G01*
G37*
%TD.AperFunction*%
%TD*%
%TO.P,R1,2*%
%TO.N,GND*%
X88110000Y-80010000D03*
%TO.P,R1,1*%
%TO.N,Net-(J4-Pad6)*%
%TA.AperFunction,ComponentPad*%
G36*
G01*
X93760000Y-79209999D02*
X93760000Y-80810001D01*
G75*
G02*
X93510001Y-81060000I-249999J0D01*
G01*
X91909999Y-81060000D01*
G75*
G02*
X91660000Y-80810001I0J249999D01*
G01*
X91660000Y-79209999D01*
G75*
G02*
X91909999Y-78960000I249999J0D01*
G01*
X93510001Y-78960000D01*
G75*
G02*
X93760000Y-79209999I0J-249999D01*
G01*
G37*
%TD.AperFunction*%
%TD*%
D12*
%TO.P,J5,8*%
%TO.N,+12V*%
X113030000Y-87630000D03*
%TO.P,J5,4*%
%TO.N,Net-(J5-Pad4)*%
X105410000Y-95250000D03*
%TO.P,J5,7*%
%TO.N,Net-(J5-Pad7)*%
X113030000Y-90170000D03*
%TO.P,J5,3*%
%TO.N,Net-(J5-Pad3)*%
X105410000Y-92710000D03*
%TO.P,J5,6*%
%TO.N,Net-(J5-Pad6)*%
X113030000Y-92710000D03*
%TO.P,J5,2*%
%TO.N,-12V*%
X105410000Y-90170000D03*
%TO.P,J5,5*%
%TO.N,Net-(J5-Pad5)*%
X113030000Y-95250000D03*
D13*
%TO.P,J5,1*%
%TO.N,Net-(J5-Pad1)*%
X105410000Y-87630000D03*
%TD*%
D12*
%TO.P,J4,8*%
%TO.N,+12V*%
X113030000Y-72390000D03*
%TO.P,J4,4*%
%TO.N,Net-(J4-Pad4)*%
X105410000Y-80010000D03*
%TO.P,J4,7*%
%TO.N,Net-(J4-Pad7)*%
X113030000Y-74930000D03*
%TO.P,J4,3*%
%TO.N,Net-(J4-Pad3)*%
X105410000Y-77470000D03*
%TO.P,J4,6*%
%TO.N,Net-(J4-Pad6)*%
X113030000Y-77470000D03*
%TO.P,J4,2*%
%TO.N,-12V*%
X105410000Y-74930000D03*
%TO.P,J4,5*%
%TO.N,Net-(J4-Pad5)*%
X113030000Y-80010000D03*
D13*
%TO.P,J4,1*%
%TO.N,Net-(J4-Pad1)*%
X105410000Y-72390000D03*
%TD*%
D21*
%TO.P,J3,2*%
%TO.N,GND*%
X72390000Y-100330000D03*
X72390000Y-105410000D03*
X77470000Y-105410000D03*
X77470000Y-100330000D03*
D22*
%TO.P,J3,1*%
%TO.N,Net-(J3-Pad1)*%
X74930000Y-102870000D03*
%TD*%
D21*
%TO.P,J2,2*%
%TO.N,GND*%
X72390000Y-86360000D03*
X72390000Y-91440000D03*
X77470000Y-91440000D03*
X77470000Y-86360000D03*
D22*
%TO.P,J2,1*%
%TO.N,Net-(J2-Pad1)*%
X74930000Y-88900000D03*
%TD*%
D21*
%TO.P,J1,2*%
%TO.N,GND*%
X72390000Y-72390000D03*
X72390000Y-77470000D03*
X77470000Y-77470000D03*
X77470000Y-72390000D03*
D22*
%TO.P,J1,1*%
%TO.N,Net-(J1-Pad1)*%
X74930000Y-74930000D03*
%TD*%
D16*
%TO.P,D4,4*%
%TO.N,Net-(D1-Pad4)*%
X190500000Y-107950000D03*
%TO.P,D4,3*%
%TO.N,GND*%
X189230000Y-107950000D03*
%TO.P,D4,2*%
%TO.N,Net-(D1-Pad2)*%
X187960000Y-107950000D03*
D17*
%TO.P,D4,1*%
%TO.N,Net-(D1-Pad1)*%
X186690000Y-107950000D03*
%TD*%
D16*
%TO.P,D2,4*%
%TO.N,Net-(D1-Pad4)*%
X190500000Y-77470000D03*
%TO.P,D2,3*%
%TO.N,GND*%
X189230000Y-77470000D03*
%TO.P,D2,2*%
%TO.N,Net-(D1-Pad2)*%
X187960000Y-77470000D03*
D17*
%TO.P,D2,1*%
%TO.N,Net-(D1-Pad1)*%
X186690000Y-77470000D03*
%TD*%
D16*
%TO.P,D1,4*%
%TO.N,Net-(D1-Pad4)*%
X158750000Y-77470000D03*
%TO.P,D1,3*%
%TO.N,GND*%
X157480000Y-77470000D03*
%TO.P,D1,2*%
%TO.N,Net-(D1-Pad2)*%
X156210000Y-77470000D03*
D17*
%TO.P,D1,1*%
%TO.N,Net-(D1-Pad1)*%
X154940000Y-77470000D03*
%TD*%
D23*
%TO.N,Net-(D1-Pad4)*%
X127000000Y-76990000D02*
X128750000Y-76990000D01*
X158750000Y-73660000D02*
X158750000Y-77470000D01*
X156210000Y-71120000D02*
X158750000Y-73660000D01*
X128750000Y-76990000D02*
X132080000Y-73660000D01*
X139700000Y-73660000D02*
X142240000Y-71120000D01*
X142240000Y-71120000D02*
X156210000Y-71120000D01*
X190500000Y-107950000D02*
X190500000Y-77470000D01*
X158750000Y-77470000D02*
X158750000Y-107950000D01*
X158750000Y-107950000D02*
X166370000Y-107950000D01*
X166370000Y-107950000D02*
X166370000Y-72390000D01*
X166370000Y-72390000D02*
X171450000Y-67310000D01*
X171450000Y-67310000D02*
X190500000Y-67310000D01*
X190500000Y-67310000D02*
X190500000Y-77470000D01*
X132080000Y-73660000D02*
X139700000Y-73660000D01*
%TO.N,GND*%
X72390000Y-113030000D02*
X72390000Y-105410000D01*
X72390000Y-105410000D02*
X72390000Y-100330000D01*
X72390000Y-91440000D02*
X72390000Y-86360000D01*
X72390000Y-77470000D02*
X72390000Y-72390000D01*
X72390000Y-86360000D02*
X72390000Y-77470000D01*
X72390000Y-100330000D02*
X72390000Y-91440000D01*
X82550000Y-110490000D02*
X77470000Y-105410000D01*
X88110000Y-110490000D02*
X82550000Y-110490000D01*
X81280000Y-95250000D02*
X77470000Y-91440000D01*
X88110000Y-95250000D02*
X81280000Y-95250000D01*
X80010000Y-80010000D02*
X77470000Y-77470000D01*
X88110000Y-80010000D02*
X80010000Y-80010000D01*
X72390000Y-86360000D02*
X77470000Y-86360000D01*
X72390000Y-91440000D02*
X77470000Y-91440000D01*
X72390000Y-77470000D02*
X77470000Y-77470000D01*
X72390000Y-72390000D02*
X77470000Y-72390000D01*
X72390000Y-100330000D02*
X77470000Y-100330000D01*
X72390000Y-105410000D02*
X77470000Y-105410000D01*
X189230000Y-108261237D02*
X189230000Y-107950000D01*
X189230000Y-77470000D02*
X189230000Y-107950000D01*
X157480000Y-107950000D02*
X157480000Y-77470000D01*
X157480000Y-109100000D02*
X158750000Y-110370000D01*
X157480000Y-107950000D02*
X157480000Y-109100000D01*
X158750000Y-110370000D02*
X158750000Y-110490000D01*
X158750000Y-110490000D02*
X160020000Y-111760000D01*
X160020000Y-111760000D02*
X168910000Y-111760000D01*
X168910000Y-111760000D02*
X168910000Y-73660000D01*
X168910000Y-73660000D02*
X172720000Y-69850000D01*
X172720000Y-69850000D02*
X189230000Y-69850000D01*
X189230000Y-69850000D02*
X189230000Y-77470000D01*
X189230000Y-113030000D02*
X189230000Y-107950000D01*
X181610000Y-120650000D02*
X189230000Y-113030000D01*
X80010000Y-120650000D02*
X181610000Y-120650000D01*
X72390000Y-113030000D02*
X80010000Y-120650000D01*
X102870000Y-67310000D02*
X105410000Y-64770000D01*
X82550000Y-67310000D02*
X102870000Y-67310000D01*
X77470000Y-72390000D02*
X82550000Y-67310000D01*
%TO.N,Net-(D1-Pad2)*%
X187960000Y-107950000D02*
X187960000Y-77470000D01*
X156210000Y-77470000D02*
X156210000Y-107950000D01*
X156210000Y-107950000D02*
X156210000Y-110490000D01*
X156210000Y-110490000D02*
X160020000Y-114300000D01*
X160020000Y-114300000D02*
X171450000Y-114300000D01*
X171450000Y-114300000D02*
X171450000Y-76200000D01*
X171450000Y-76200000D02*
X175260000Y-72390000D01*
X175260000Y-72390000D02*
X187960000Y-72390000D01*
X187960000Y-72390000D02*
X187960000Y-77470000D01*
X154940000Y-72390000D02*
X156210000Y-73660000D01*
X143510000Y-72390000D02*
X154940000Y-72390000D01*
X139700000Y-87150000D02*
X139700000Y-76200000D01*
X156210000Y-73660000D02*
X156210000Y-77470000D01*
X139700000Y-76200000D02*
X143510000Y-72390000D01*
X132080000Y-87150000D02*
X139700000Y-87150000D01*
X127000000Y-92230000D02*
X132080000Y-87150000D01*
%TO.N,Net-(D1-Pad1)*%
X186690000Y-77470000D02*
X186690000Y-107950000D01*
X154940000Y-107950000D02*
X154940000Y-77470000D01*
X154940000Y-107950000D02*
X154940000Y-111760000D01*
X154940000Y-111760000D02*
X160020000Y-116840000D01*
X160020000Y-116840000D02*
X175260000Y-116840000D01*
X175260000Y-116840000D02*
X175260000Y-80010000D01*
X177800000Y-77470000D02*
X186690000Y-77470000D01*
X175260000Y-80010000D02*
X177800000Y-77470000D01*
X153670000Y-76200000D02*
X154940000Y-77470000D01*
X144780000Y-76200000D02*
X153670000Y-76200000D01*
X142240000Y-78740000D02*
X144780000Y-76200000D01*
X142240000Y-99850000D02*
X142240000Y-78740000D01*
X134620000Y-99850000D02*
X142240000Y-99850000D01*
X127000000Y-107470000D02*
X134620000Y-99850000D01*
%TO.N,Net-(J1-Pad1)*%
X88110000Y-72390000D02*
X83820000Y-72390000D01*
X81280000Y-74930000D02*
X74930000Y-74930000D01*
X83820000Y-72390000D02*
X81280000Y-74930000D01*
%TO.N,Net-(J2-Pad1)*%
X88110000Y-87630000D02*
X82550000Y-87630000D01*
X81280000Y-88900000D02*
X74930000Y-88900000D01*
X82550000Y-87630000D02*
X81280000Y-88900000D01*
%TO.N,Net-(J3-Pad1)*%
X74930000Y-102870000D02*
X79220000Y-102870000D01*
X88110000Y-102870000D02*
X79220000Y-102870000D01*
%TO.N,Net-(J4-Pad3)*%
X92710000Y-72390000D02*
X97790000Y-72390000D01*
X102870000Y-77470000D02*
X105410000Y-77470000D01*
X97790000Y-72390000D02*
X102870000Y-77470000D01*
%TO.N,Net-(J4-Pad6)*%
X113510000Y-76990000D02*
X113030000Y-77470000D01*
X119380000Y-76990000D02*
X113510000Y-76990000D01*
X92710000Y-80010000D02*
X99060000Y-80010000D01*
X99060000Y-80010000D02*
X101600000Y-82550000D01*
X101600000Y-82550000D02*
X107950000Y-82550000D01*
X107950000Y-82550000D02*
X113030000Y-77470000D01*
%TO.N,Net-(J4-Pad1)*%
X127000000Y-72390000D02*
X119380000Y-72390000D01*
X119380000Y-72390000D02*
X115570000Y-68580000D01*
X115570000Y-68580000D02*
X109220000Y-68580000D01*
X109220000Y-68580000D02*
X105410000Y-72390000D01*
%TO.N,Net-(J5-Pad3)*%
X92710000Y-87630000D02*
X97790000Y-87630000D01*
X102870000Y-92710000D02*
X105410000Y-92710000D01*
X97790000Y-87630000D02*
X102870000Y-92710000D01*
%TO.N,Net-(J5-Pad6)*%
X113510000Y-92230000D02*
X113030000Y-92710000D01*
X119380000Y-92230000D02*
X113510000Y-92230000D01*
X92710000Y-95250000D02*
X99060000Y-95250000D01*
X99060000Y-95250000D02*
X101600000Y-97790000D01*
X101600000Y-97790000D02*
X107950000Y-97790000D01*
X107950000Y-97790000D02*
X113030000Y-92710000D01*
%TO.N,Net-(J5-Pad1)*%
X127000000Y-87630000D02*
X119380000Y-87630000D01*
X119380000Y-87630000D02*
X115570000Y-83820000D01*
X115570000Y-83820000D02*
X109220000Y-83820000D01*
X109220000Y-83820000D02*
X105410000Y-87630000D01*
%TO.N,Net-(J6-Pad3)*%
X92710000Y-102870000D02*
X97790000Y-102870000D01*
X102870000Y-107950000D02*
X105410000Y-107950000D01*
X97790000Y-102870000D02*
X102870000Y-107950000D01*
%TO.N,Net-(J6-Pad6)*%
X113510000Y-107470000D02*
X113030000Y-107950000D01*
X119380000Y-107470000D02*
X113510000Y-107470000D01*
X92710000Y-110490000D02*
X99060000Y-110490000D01*
X99060000Y-110490000D02*
X101600000Y-113030000D01*
X107950000Y-113030000D02*
X113030000Y-107950000D01*
X101600000Y-113030000D02*
X107950000Y-113030000D01*
%TO.N,Net-(J6-Pad1)*%
X127000000Y-102870000D02*
X119380000Y-102870000D01*
X109220000Y-99060000D02*
X105410000Y-102870000D01*
X115570000Y-99060000D02*
X109220000Y-99060000D01*
X119380000Y-102870000D02*
X115570000Y-99060000D01*
%TD*%
M02*
