M48
; DRILL file {KiCad (5.1.9)-1} date 04/08/22 15:27:04
; FORMAT={-:-/ absolute / inch / decimal}
; #@! TF.CreationDate,2022-04-08T15:27:04-04:00
; #@! TF.GenerationSoftware,Kicad,Pcbnew,(5.1.9)-1
; #@! TF.FileFunction,Plated,1,2,PTH
FMAT,2
INCH
T1C0.0315
T2C0.0394
T3C0.0433
T4C0.0591
T5C0.0669
%
G90
G05
T1
X5.5Y-3.25
X5.6Y-3.15
X5.7Y-3.25
T2
X4.65Y-3.4
X4.65Y-3.5
X4.65Y-3.6
X5.05Y-3.4
X5.05Y-3.5
X5.05Y-3.6
T3
X5.5Y-3.8
X5.5Y-3.9811
T4
X6.65Y-3.05
X6.65Y-3.55
X6.65Y-4.05
T5
X6.55Y-2.95
X6.55Y-3.15
X6.55Y-3.45
X6.55Y-3.65
X6.55Y-3.95
X6.55Y-4.15
X6.75Y-2.95
X6.75Y-3.15
X6.75Y-3.45
X6.75Y-3.65
X6.75Y-3.95
X6.75Y-4.15
T0
M30
