%TF.GenerationSoftware,KiCad,Pcbnew,(5.1.9)-1*%
%TF.CreationDate,2022-04-08T15:27:02-04:00*%
%TF.ProjectId,OffsetPCB,4f666673-6574-4504-9342-2e6b69636164,rev?*%
%TF.SameCoordinates,Original*%
%TF.FileFunction,Copper,L1,Top*%
%TF.FilePolarity,Positive*%
%FSLAX46Y46*%
G04 Gerber Fmt 4.6, Leading zero omitted, Abs format (unit mm)*
G04 Created by KiCad (PCBNEW (5.1.9)-1) date 2022-04-08 15:27:02*
%MOMM*%
%LPD*%
G01*
G04 APERTURE LIST*
%TA.AperFunction,NonConductor*%
%ADD10C,0.300000*%
%TD*%
%TA.AperFunction,ComponentPad*%
%ADD11R,1.700000X1.700000*%
%TD*%
%TA.AperFunction,ComponentPad*%
%ADD12O,1.700000X1.700000*%
%TD*%
%TA.AperFunction,ComponentPad*%
%ADD13C,1.440000*%
%TD*%
%TA.AperFunction,ComponentPad*%
%ADD14C,2.100000*%
%TD*%
%TA.AperFunction,ComponentPad*%
%ADD15C,2.250000*%
%TD*%
%TA.AperFunction,ComponentPad*%
%ADD16C,2.050000*%
%TD*%
%TA.AperFunction,Conductor*%
%ADD17C,0.250000*%
%TD*%
G04 APERTURE END LIST*
D10*
X130707142Y-89007142D02*
X131850000Y-89007142D01*
X131278571Y-89578571D02*
X131278571Y-88435714D01*
X133350000Y-89578571D02*
X132492857Y-89578571D01*
X132921428Y-89578571D02*
X132921428Y-88078571D01*
X132778571Y-88292857D01*
X132635714Y-88435714D01*
X132492857Y-88507142D01*
X133921428Y-88221428D02*
X133992857Y-88150000D01*
X134135714Y-88078571D01*
X134492857Y-88078571D01*
X134635714Y-88150000D01*
X134707142Y-88221428D01*
X134778571Y-88364285D01*
X134778571Y-88507142D01*
X134707142Y-88721428D01*
X133850000Y-89578571D01*
X134778571Y-89578571D01*
X135207142Y-88078571D02*
X135707142Y-89578571D01*
X136207142Y-88078571D01*
X114045714Y-70298571D02*
X114045714Y-71512857D01*
X114117142Y-71655714D01*
X114188571Y-71727142D01*
X114331428Y-71798571D01*
X114617142Y-71798571D01*
X114760000Y-71727142D01*
X114831428Y-71655714D01*
X114902857Y-71512857D01*
X114902857Y-70298571D01*
X116474285Y-71655714D02*
X116402857Y-71727142D01*
X116188571Y-71798571D01*
X116045714Y-71798571D01*
X115831428Y-71727142D01*
X115688571Y-71584285D01*
X115617142Y-71441428D01*
X115545714Y-71155714D01*
X115545714Y-70941428D01*
X115617142Y-70655714D01*
X115688571Y-70512857D01*
X115831428Y-70370000D01*
X116045714Y-70298571D01*
X116188571Y-70298571D01*
X116402857Y-70370000D01*
X116474285Y-70441428D01*
X117045714Y-71370000D02*
X117760000Y-71370000D01*
X116902857Y-71798571D02*
X117402857Y-70298571D01*
X117902857Y-71798571D01*
X118402857Y-71798571D02*
X118402857Y-70298571D01*
X119260000Y-71798571D01*
X119260000Y-70298571D01*
X121831428Y-71798571D02*
X121117142Y-71798571D01*
X121117142Y-70298571D01*
X122974285Y-71798571D02*
X122974285Y-71012857D01*
X122902857Y-70870000D01*
X122760000Y-70798571D01*
X122474285Y-70798571D01*
X122331428Y-70870000D01*
X122974285Y-71727142D02*
X122831428Y-71798571D01*
X122474285Y-71798571D01*
X122331428Y-71727142D01*
X122260000Y-71584285D01*
X122260000Y-71441428D01*
X122331428Y-71298571D01*
X122474285Y-71227142D01*
X122831428Y-71227142D01*
X122974285Y-71155714D01*
X123688571Y-71798571D02*
X123688571Y-70298571D01*
X123688571Y-70870000D02*
X123831428Y-70798571D01*
X124117142Y-70798571D01*
X124260000Y-70870000D01*
X124331428Y-70941428D01*
X124402857Y-71084285D01*
X124402857Y-71512857D01*
X124331428Y-71655714D01*
X124260000Y-71727142D01*
X124117142Y-71798571D01*
X123831428Y-71798571D01*
X123688571Y-71727142D01*
X125045714Y-71655714D02*
X125117142Y-71727142D01*
X125045714Y-71798571D01*
X124974285Y-71727142D01*
X125045714Y-71655714D01*
X125045714Y-71798571D01*
X125045714Y-70870000D02*
X125117142Y-70941428D01*
X125045714Y-71012857D01*
X124974285Y-70941428D01*
X125045714Y-70870000D01*
X125045714Y-71012857D01*
X126688571Y-70298571D02*
X127545714Y-70298571D01*
X127117142Y-71798571D02*
X127117142Y-70298571D01*
X128617142Y-71727142D02*
X128474285Y-71798571D01*
X128188571Y-71798571D01*
X128045714Y-71727142D01*
X127974285Y-71584285D01*
X127974285Y-71012857D01*
X128045714Y-70870000D01*
X128188571Y-70798571D01*
X128474285Y-70798571D01*
X128617142Y-70870000D01*
X128688571Y-71012857D01*
X128688571Y-71155714D01*
X127974285Y-71298571D01*
X129974285Y-71798571D02*
X129974285Y-71012857D01*
X129902857Y-70870000D01*
X129760000Y-70798571D01*
X129474285Y-70798571D01*
X129331428Y-70870000D01*
X129974285Y-71727142D02*
X129831428Y-71798571D01*
X129474285Y-71798571D01*
X129331428Y-71727142D01*
X129260000Y-71584285D01*
X129260000Y-71441428D01*
X129331428Y-71298571D01*
X129474285Y-71227142D01*
X129831428Y-71227142D01*
X129974285Y-71155714D01*
X130688571Y-71798571D02*
X130688571Y-70798571D01*
X130688571Y-70941428D02*
X130760000Y-70870000D01*
X130902857Y-70798571D01*
X131117142Y-70798571D01*
X131260000Y-70870000D01*
X131331428Y-71012857D01*
X131331428Y-71798571D01*
X131331428Y-71012857D02*
X131402857Y-70870000D01*
X131545714Y-70798571D01*
X131760000Y-70798571D01*
X131902857Y-70870000D01*
X131974285Y-71012857D01*
X131974285Y-71798571D01*
X134045714Y-70941428D02*
X133902857Y-70870000D01*
X133831428Y-70798571D01*
X133760000Y-70655714D01*
X133760000Y-70584285D01*
X133831428Y-70441428D01*
X133902857Y-70370000D01*
X134045714Y-70298571D01*
X134331428Y-70298571D01*
X134474285Y-70370000D01*
X134545714Y-70441428D01*
X134617142Y-70584285D01*
X134617142Y-70655714D01*
X134545714Y-70798571D01*
X134474285Y-70870000D01*
X134331428Y-70941428D01*
X134045714Y-70941428D01*
X133902857Y-71012857D01*
X133831428Y-71084285D01*
X133760000Y-71227142D01*
X133760000Y-71512857D01*
X133831428Y-71655714D01*
X133902857Y-71727142D01*
X134045714Y-71798571D01*
X134331428Y-71798571D01*
X134474285Y-71727142D01*
X134545714Y-71655714D01*
X134617142Y-71512857D01*
X134617142Y-71227142D01*
X134545714Y-71084285D01*
X134474285Y-71012857D01*
X134331428Y-70941428D01*
X135260000Y-71655714D02*
X135331428Y-71727142D01*
X135260000Y-71798571D01*
X135188571Y-71727142D01*
X135260000Y-71655714D01*
X135260000Y-71798571D01*
X135260000Y-70870000D02*
X135331428Y-70941428D01*
X135260000Y-71012857D01*
X135188571Y-70941428D01*
X135260000Y-70870000D01*
X135260000Y-71012857D01*
X137045714Y-71727142D02*
X137260000Y-71798571D01*
X137617142Y-71798571D01*
X137760000Y-71727142D01*
X137831428Y-71655714D01*
X137902857Y-71512857D01*
X137902857Y-71370000D01*
X137831428Y-71227142D01*
X137760000Y-71155714D01*
X137617142Y-71084285D01*
X137331428Y-71012857D01*
X137188571Y-70941428D01*
X137117142Y-70870000D01*
X137045714Y-70727142D01*
X137045714Y-70584285D01*
X137117142Y-70441428D01*
X137188571Y-70370000D01*
X137331428Y-70298571D01*
X137688571Y-70298571D01*
X137902857Y-70370000D01*
X138545714Y-71798571D02*
X138545714Y-70298571D01*
X138902857Y-70298571D01*
X139117142Y-70370000D01*
X139260000Y-70512857D01*
X139331428Y-70655714D01*
X139402857Y-70941428D01*
X139402857Y-71155714D01*
X139331428Y-71441428D01*
X139260000Y-71584285D01*
X139117142Y-71727142D01*
X138902857Y-71798571D01*
X138545714Y-71798571D01*
X139831428Y-70298571D02*
X140331428Y-71798571D01*
X140831428Y-70298571D01*
X142045714Y-71798571D02*
X141331428Y-71798571D01*
X141331428Y-70298571D01*
X143402857Y-71655714D02*
X143331428Y-71727142D01*
X143117142Y-71798571D01*
X142974285Y-71798571D01*
X142760000Y-71727142D01*
X142617142Y-71584285D01*
X142545714Y-71441428D01*
X142474285Y-71155714D01*
X142474285Y-70941428D01*
X142545714Y-70655714D01*
X142617142Y-70512857D01*
X142760000Y-70370000D01*
X142974285Y-70298571D01*
X143117142Y-70298571D01*
X143331428Y-70370000D01*
X143402857Y-70441428D01*
X144974285Y-70298571D02*
X145831428Y-70298571D01*
X145402857Y-71798571D02*
X145402857Y-70298571D01*
X146331428Y-71798571D02*
X146331428Y-70798571D01*
X146331428Y-71084285D02*
X146402857Y-70941428D01*
X146474285Y-70870000D01*
X146617142Y-70798571D01*
X146760000Y-70798571D01*
X147902857Y-71798571D02*
X147902857Y-71012857D01*
X147831428Y-70870000D01*
X147688571Y-70798571D01*
X147402857Y-70798571D01*
X147260000Y-70870000D01*
X147902857Y-71727142D02*
X147760000Y-71798571D01*
X147402857Y-71798571D01*
X147260000Y-71727142D01*
X147188571Y-71584285D01*
X147188571Y-71441428D01*
X147260000Y-71298571D01*
X147402857Y-71227142D01*
X147760000Y-71227142D01*
X147902857Y-71155714D01*
X148617142Y-70798571D02*
X148617142Y-71798571D01*
X148617142Y-70941428D02*
X148688571Y-70870000D01*
X148831428Y-70798571D01*
X149045714Y-70798571D01*
X149188571Y-70870000D01*
X149260000Y-71012857D01*
X149260000Y-71798571D01*
X149902857Y-71727142D02*
X150045714Y-71798571D01*
X150331428Y-71798571D01*
X150474285Y-71727142D01*
X150545714Y-71584285D01*
X150545714Y-71512857D01*
X150474285Y-71370000D01*
X150331428Y-71298571D01*
X150117142Y-71298571D01*
X149974285Y-71227142D01*
X149902857Y-71084285D01*
X149902857Y-71012857D01*
X149974285Y-70870000D01*
X150117142Y-70798571D01*
X150331428Y-70798571D01*
X150474285Y-70870000D01*
X151188571Y-71798571D02*
X151188571Y-70798571D01*
X151188571Y-70941428D02*
X151260000Y-70870000D01*
X151402857Y-70798571D01*
X151617142Y-70798571D01*
X151760000Y-70870000D01*
X151831428Y-71012857D01*
X151831428Y-71798571D01*
X151831428Y-71012857D02*
X151902857Y-70870000D01*
X152045714Y-70798571D01*
X152260000Y-70798571D01*
X152402857Y-70870000D01*
X152474285Y-71012857D01*
X152474285Y-71798571D01*
X153188571Y-71798571D02*
X153188571Y-70798571D01*
X153188571Y-70298571D02*
X153117142Y-70370000D01*
X153188571Y-70441428D01*
X153260000Y-70370000D01*
X153188571Y-70298571D01*
X153188571Y-70441428D01*
X153688571Y-70798571D02*
X154260000Y-70798571D01*
X153902857Y-70298571D02*
X153902857Y-71584285D01*
X153974285Y-71727142D01*
X154117142Y-71798571D01*
X154260000Y-71798571D01*
X154545714Y-70798571D02*
X155117142Y-70798571D01*
X154760000Y-70298571D02*
X154760000Y-71584285D01*
X154831428Y-71727142D01*
X154974285Y-71798571D01*
X155117142Y-71798571D01*
X156188571Y-71727142D02*
X156045714Y-71798571D01*
X155760000Y-71798571D01*
X155617142Y-71727142D01*
X155545714Y-71584285D01*
X155545714Y-71012857D01*
X155617142Y-70870000D01*
X155760000Y-70798571D01*
X156045714Y-70798571D01*
X156188571Y-70870000D01*
X156260000Y-71012857D01*
X156260000Y-71155714D01*
X155545714Y-71298571D01*
X156902857Y-71798571D02*
X156902857Y-70798571D01*
X156902857Y-71084285D02*
X156974285Y-70941428D01*
X157045714Y-70870000D01*
X157188571Y-70798571D01*
X157331428Y-70798571D01*
X157902857Y-71727142D02*
X157902857Y-71798571D01*
X157831428Y-71941428D01*
X157760000Y-72012857D01*
X159617142Y-71727142D02*
X159831428Y-71798571D01*
X160188571Y-71798571D01*
X160331428Y-71727142D01*
X160402857Y-71655714D01*
X160474285Y-71512857D01*
X160474285Y-71370000D01*
X160402857Y-71227142D01*
X160331428Y-71155714D01*
X160188571Y-71084285D01*
X159902857Y-71012857D01*
X159760000Y-70941428D01*
X159688571Y-70870000D01*
X159617142Y-70727142D01*
X159617142Y-70584285D01*
X159688571Y-70441428D01*
X159760000Y-70370000D01*
X159902857Y-70298571D01*
X160260000Y-70298571D01*
X160474285Y-70370000D01*
X161117142Y-70798571D02*
X161117142Y-72298571D01*
X161117142Y-70870000D02*
X161260000Y-70798571D01*
X161545714Y-70798571D01*
X161688571Y-70870000D01*
X161760000Y-70941428D01*
X161831428Y-71084285D01*
X161831428Y-71512857D01*
X161760000Y-71655714D01*
X161688571Y-71727142D01*
X161545714Y-71798571D01*
X161260000Y-71798571D01*
X161117142Y-71727142D01*
X162474285Y-71798571D02*
X162474285Y-70798571D01*
X162474285Y-71084285D02*
X162545714Y-70941428D01*
X162617142Y-70870000D01*
X162760000Y-70798571D01*
X162902857Y-70798571D01*
X163402857Y-71798571D02*
X163402857Y-70798571D01*
X163402857Y-70298571D02*
X163331428Y-70370000D01*
X163402857Y-70441428D01*
X163474285Y-70370000D01*
X163402857Y-70298571D01*
X163402857Y-70441428D01*
X164117142Y-70798571D02*
X164117142Y-71798571D01*
X164117142Y-70941428D02*
X164188571Y-70870000D01*
X164331428Y-70798571D01*
X164545714Y-70798571D01*
X164688571Y-70870000D01*
X164760000Y-71012857D01*
X164760000Y-71798571D01*
X166117142Y-70798571D02*
X166117142Y-72012857D01*
X166045714Y-72155714D01*
X165974285Y-72227142D01*
X165831428Y-72298571D01*
X165617142Y-72298571D01*
X165474285Y-72227142D01*
X166117142Y-71727142D02*
X165974285Y-71798571D01*
X165688571Y-71798571D01*
X165545714Y-71727142D01*
X165474285Y-71655714D01*
X165402857Y-71512857D01*
X165402857Y-71084285D01*
X165474285Y-70941428D01*
X165545714Y-70870000D01*
X165688571Y-70798571D01*
X165974285Y-70798571D01*
X166117142Y-70870000D01*
X167902857Y-70441428D02*
X167974285Y-70370000D01*
X168117142Y-70298571D01*
X168474285Y-70298571D01*
X168617142Y-70370000D01*
X168688571Y-70441428D01*
X168760000Y-70584285D01*
X168760000Y-70727142D01*
X168688571Y-70941428D01*
X167831428Y-71798571D01*
X168760000Y-71798571D01*
X169688571Y-70298571D02*
X169831428Y-70298571D01*
X169974285Y-70370000D01*
X170045714Y-70441428D01*
X170117142Y-70584285D01*
X170188571Y-70870000D01*
X170188571Y-71227142D01*
X170117142Y-71512857D01*
X170045714Y-71655714D01*
X169974285Y-71727142D01*
X169831428Y-71798571D01*
X169688571Y-71798571D01*
X169545714Y-71727142D01*
X169474285Y-71655714D01*
X169402857Y-71512857D01*
X169331428Y-71227142D01*
X169331428Y-70870000D01*
X169402857Y-70584285D01*
X169474285Y-70441428D01*
X169545714Y-70370000D01*
X169688571Y-70298571D01*
X170760000Y-70441428D02*
X170831428Y-70370000D01*
X170974285Y-70298571D01*
X171331428Y-70298571D01*
X171474285Y-70370000D01*
X171545714Y-70441428D01*
X171617142Y-70584285D01*
X171617142Y-70727142D01*
X171545714Y-70941428D01*
X170688571Y-71798571D01*
X171617142Y-71798571D01*
X172188571Y-70441428D02*
X172260000Y-70370000D01*
X172402857Y-70298571D01*
X172760000Y-70298571D01*
X172902857Y-70370000D01*
X172974285Y-70441428D01*
X173045714Y-70584285D01*
X173045714Y-70727142D01*
X172974285Y-70941428D01*
X172117142Y-71798571D01*
X173045714Y-71798571D01*
X130707142Y-92817142D02*
X131850000Y-92817142D01*
X133350000Y-93388571D02*
X132492857Y-93388571D01*
X132921428Y-93388571D02*
X132921428Y-91888571D01*
X132778571Y-92102857D01*
X132635714Y-92245714D01*
X132492857Y-92317142D01*
X133921428Y-92031428D02*
X133992857Y-91960000D01*
X134135714Y-91888571D01*
X134492857Y-91888571D01*
X134635714Y-91960000D01*
X134707142Y-92031428D01*
X134778571Y-92174285D01*
X134778571Y-92317142D01*
X134707142Y-92531428D01*
X133850000Y-93388571D01*
X134778571Y-93388571D01*
X135207142Y-91888571D02*
X135707142Y-93388571D01*
X136207142Y-91888571D01*
X132207142Y-84340000D02*
X132064285Y-84268571D01*
X131850000Y-84268571D01*
X131635714Y-84340000D01*
X131492857Y-84482857D01*
X131421428Y-84625714D01*
X131350000Y-84911428D01*
X131350000Y-85125714D01*
X131421428Y-85411428D01*
X131492857Y-85554285D01*
X131635714Y-85697142D01*
X131850000Y-85768571D01*
X131992857Y-85768571D01*
X132207142Y-85697142D01*
X132278571Y-85625714D01*
X132278571Y-85125714D01*
X131992857Y-85125714D01*
X132921428Y-85768571D02*
X132921428Y-84268571D01*
X133778571Y-85768571D01*
X133778571Y-84268571D01*
X134492857Y-85768571D02*
X134492857Y-84268571D01*
X134850000Y-84268571D01*
X135064285Y-84340000D01*
X135207142Y-84482857D01*
X135278571Y-84625714D01*
X135350000Y-84911428D01*
X135350000Y-85125714D01*
X135278571Y-85411428D01*
X135207142Y-85554285D01*
X135064285Y-85697142D01*
X134850000Y-85768571D01*
X134492857Y-85768571D01*
D11*
%TO.P,REF\u002A\u002A,1*%
%TO.N,GND*%
X118110000Y-86360000D03*
D12*
%TO.P,REF\u002A\u002A,2*%
%TO.N,N/C*%
X118110000Y-88900000D03*
%TO.P,REF\u002A\u002A,3*%
%TO.N,-12V*%
X118110000Y-91440000D03*
%TD*%
%TO.P,REF\u002A\u002A,3*%
%TO.N,-12V*%
X128270000Y-91440000D03*
%TO.P,REF\u002A\u002A,2*%
%TO.N,N/C*%
X128270000Y-88900000D03*
D11*
%TO.P,REF\u002A\u002A,1*%
%TO.N,GND*%
X128270000Y-86360000D03*
%TD*%
D13*
%TO.P,RV1,1*%
%TO.N,Net-(RV1-Pad1)*%
X144780000Y-82550000D03*
%TO.P,RV1,2*%
%TO.N,GND*%
X142240000Y-80010000D03*
%TO.P,RV1,3*%
%TO.N,Net-(J1-Pad1)*%
X139700000Y-82550000D03*
%TD*%
D14*
%TO.P,R1,2*%
%TO.N,-12V*%
X139700000Y-101120000D03*
%TO.P,R1,1*%
%TO.N,Net-(J1-Pad1)*%
%TA.AperFunction,ComponentPad*%
G36*
G01*
X138900000Y-95470000D02*
X140500000Y-95470000D01*
G75*
G02*
X140750000Y-95720000I0J-250000D01*
G01*
X140750000Y-97320000D01*
G75*
G02*
X140500000Y-97570000I-250000J0D01*
G01*
X138900000Y-97570000D01*
G75*
G02*
X138650000Y-97320000I0J250000D01*
G01*
X138650000Y-95720000D01*
G75*
G02*
X138900000Y-95470000I250000J0D01*
G01*
G37*
%TD.AperFunction*%
%TD*%
D15*
%TO.P,J3,2*%
%TO.N,GND*%
X166370000Y-92710000D03*
X166370000Y-87630000D03*
X171450000Y-87630000D03*
X171450000Y-92710000D03*
D16*
%TO.P,J3,1*%
%TO.N,Net-(J1-Pad1)*%
X168910000Y-90170000D03*
%TD*%
D15*
%TO.P,J2,2*%
%TO.N,GND*%
X166370000Y-105410000D03*
X166370000Y-100330000D03*
X171450000Y-100330000D03*
X171450000Y-105410000D03*
D16*
%TO.P,J2,1*%
%TO.N,Net-(J1-Pad1)*%
X168910000Y-102870000D03*
%TD*%
D15*
%TO.P,J1,2*%
%TO.N,GND*%
X166370000Y-80010000D03*
X166370000Y-74930000D03*
X171450000Y-74930000D03*
X171450000Y-80010000D03*
D16*
%TO.P,J1,1*%
%TO.N,Net-(J1-Pad1)*%
X168910000Y-77470000D03*
%TD*%
D17*
%TO.N,*%
X128270000Y-88900000D02*
X118110000Y-88900000D01*
%TO.N,GND*%
X132080000Y-80010000D02*
X142240000Y-80010000D01*
X166370000Y-74930000D02*
X171450000Y-74930000D01*
X171450000Y-74930000D02*
X171450000Y-80010000D01*
X171450000Y-80010000D02*
X166370000Y-80010000D01*
X166370000Y-80010000D02*
X166370000Y-87630000D01*
X166370000Y-87630000D02*
X171450000Y-87630000D01*
X171450000Y-87630000D02*
X171450000Y-92710000D01*
X171450000Y-92710000D02*
X166370000Y-92710000D01*
X166370000Y-92710000D02*
X166370000Y-100330000D01*
X166370000Y-100330000D02*
X171450000Y-100330000D01*
X171450000Y-100330000D02*
X171450000Y-105410000D01*
X171450000Y-105410000D02*
X166370000Y-105410000D01*
X147320000Y-74930000D02*
X142240000Y-80010000D01*
X166370000Y-74930000D02*
X147320000Y-74930000D01*
X118110000Y-86360000D02*
X128270000Y-86360000D01*
X128270000Y-86360000D02*
X128270000Y-82550000D01*
X128270000Y-82550000D02*
X130810000Y-80010000D01*
X130810000Y-80010000D02*
X132080000Y-80010000D01*
%TO.N,Net-(J1-Pad1)*%
X139700000Y-82550000D02*
X139700000Y-96520000D01*
X139700000Y-96520000D02*
X154940000Y-96520000D01*
X161290000Y-102870000D02*
X168910000Y-102870000D01*
X154940000Y-96520000D02*
X161290000Y-102870000D01*
X154940000Y-96520000D02*
X154940000Y-80010000D01*
X157480000Y-77470000D02*
X168910000Y-77470000D01*
X154940000Y-80010000D02*
X157480000Y-77470000D01*
X168910000Y-90170000D02*
X154940000Y-90170000D01*
%TO.N,-12V*%
X138910000Y-100330000D02*
X139700000Y-101120000D01*
X132080000Y-100330000D02*
X138910000Y-100330000D01*
X132080000Y-100330000D02*
X128270000Y-96520000D01*
X128270000Y-96520000D02*
X128270000Y-91440000D01*
X128270000Y-91440000D02*
X118110000Y-91440000D01*
%TD*%
M02*
