%TF.GenerationSoftware,KiCad,Pcbnew,(5.1.9)-1*%
%TF.CreationDate,2022-04-08T15:22:57-04:00*%
%TF.ProjectId,March_PCB_Design_2_2b2848RGB,4d617263-685f-4504-9342-5f4465736967,rev?*%
%TF.SameCoordinates,Original*%
%TF.FileFunction,Legend,Top*%
%TF.FilePolarity,Positive*%
%FSLAX46Y46*%
G04 Gerber Fmt 4.6, Leading zero omitted, Abs format (unit mm)*
G04 Created by KiCad (PCBNEW (5.1.9)-1) date 2022-04-08 15:22:57*
%MOMM*%
%LPD*%
G01*
G04 APERTURE LIST*
%ADD10C,0.120000*%
%ADD11C,0.150000*%
G04 APERTURE END LIST*
D10*
%TO.C,J6*%
X108220000Y-101540000D02*
X106570000Y-101540000D01*
X106570000Y-101540000D02*
X106570000Y-111820000D01*
X106570000Y-111820000D02*
X111870000Y-111820000D01*
X111870000Y-111820000D02*
X111870000Y-101540000D01*
X111870000Y-101540000D02*
X110220000Y-101540000D01*
X110220000Y-101540000D02*
G75*
G02*
X108220000Y-101540000I-1000000J0D01*
G01*
%TO.C,D3*%
X154285000Y-106405000D02*
X154285000Y-106870000D01*
X154285000Y-109030000D02*
X154285000Y-109495000D01*
X159099479Y-109030429D02*
G75*
G02*
X154590316Y-109030000I-2254479J1080429D01*
G01*
X159099479Y-106869571D02*
G75*
G03*
X154590316Y-106870000I-2254479J-1080429D01*
G01*
X159632815Y-109030827D02*
G75*
G02*
X154285000Y-109494830I-2787815J1080827D01*
G01*
X159632815Y-106869173D02*
G75*
G03*
X154285000Y-106405170I-2787815J-1080827D01*
G01*
%TO.C,J5*%
X108220000Y-86300000D02*
X106570000Y-86300000D01*
X106570000Y-86300000D02*
X106570000Y-96580000D01*
X106570000Y-96580000D02*
X111870000Y-96580000D01*
X111870000Y-96580000D02*
X111870000Y-86300000D01*
X111870000Y-86300000D02*
X110220000Y-86300000D01*
X110220000Y-86300000D02*
G75*
G02*
X108220000Y-86300000I-1000000J0D01*
G01*
%TO.C,J4*%
X108220000Y-71060000D02*
X106570000Y-71060000D01*
X106570000Y-71060000D02*
X106570000Y-81340000D01*
X106570000Y-81340000D02*
X111870000Y-81340000D01*
X111870000Y-81340000D02*
X111870000Y-71060000D01*
X111870000Y-71060000D02*
X110220000Y-71060000D01*
X110220000Y-71060000D02*
G75*
G02*
X108220000Y-71060000I-1000000J0D01*
G01*
%TO.C,D4*%
X186035000Y-106405000D02*
X186035000Y-106870000D01*
X186035000Y-109030000D02*
X186035000Y-109495000D01*
X190849479Y-109030429D02*
G75*
G02*
X186340316Y-109030000I-2254479J1080429D01*
G01*
X190849479Y-106869571D02*
G75*
G03*
X186340316Y-106870000I-2254479J-1080429D01*
G01*
X191382815Y-109030827D02*
G75*
G02*
X186035000Y-109494830I-2787815J1080827D01*
G01*
X191382815Y-106869173D02*
G75*
G03*
X186035000Y-106405170I-2787815J-1080827D01*
G01*
%TO.C,D2*%
X186035000Y-75925000D02*
X186035000Y-76390000D01*
X186035000Y-78550000D02*
X186035000Y-79015000D01*
X190849479Y-78550429D02*
G75*
G02*
X186340316Y-78550000I-2254479J1080429D01*
G01*
X190849479Y-76389571D02*
G75*
G03*
X186340316Y-76390000I-2254479J-1080429D01*
G01*
X191382815Y-78550827D02*
G75*
G02*
X186035000Y-79014830I-2787815J1080827D01*
G01*
X191382815Y-76389173D02*
G75*
G03*
X186035000Y-75925170I-2787815J-1080827D01*
G01*
%TO.C,D1*%
X154285000Y-75925000D02*
X154285000Y-76390000D01*
X154285000Y-78550000D02*
X154285000Y-79015000D01*
X159099479Y-78550429D02*
G75*
G02*
X154590316Y-78550000I-2254479J1080429D01*
G01*
X159099479Y-76389571D02*
G75*
G03*
X154590316Y-76390000I-2254479J-1080429D01*
G01*
X159632815Y-78550827D02*
G75*
G02*
X154285000Y-79014830I-2787815J1080827D01*
G01*
X159632815Y-76389173D02*
G75*
G03*
X154285000Y-75925170I-2787815J-1080827D01*
G01*
%TO.C,J6*%
D11*
X108886666Y-99992380D02*
X108886666Y-100706666D01*
X108839047Y-100849523D01*
X108743809Y-100944761D01*
X108600952Y-100992380D01*
X108505714Y-100992380D01*
X109791428Y-99992380D02*
X109600952Y-99992380D01*
X109505714Y-100040000D01*
X109458095Y-100087619D01*
X109362857Y-100230476D01*
X109315238Y-100420952D01*
X109315238Y-100801904D01*
X109362857Y-100897142D01*
X109410476Y-100944761D01*
X109505714Y-100992380D01*
X109696190Y-100992380D01*
X109791428Y-100944761D01*
X109839047Y-100897142D01*
X109886666Y-100801904D01*
X109886666Y-100563809D01*
X109839047Y-100468571D01*
X109791428Y-100420952D01*
X109696190Y-100373333D01*
X109505714Y-100373333D01*
X109410476Y-100420952D01*
X109362857Y-100468571D01*
X109315238Y-100563809D01*
%TO.C,D3*%
X156106904Y-104442380D02*
X156106904Y-103442380D01*
X156345000Y-103442380D01*
X156487857Y-103490000D01*
X156583095Y-103585238D01*
X156630714Y-103680476D01*
X156678333Y-103870952D01*
X156678333Y-104013809D01*
X156630714Y-104204285D01*
X156583095Y-104299523D01*
X156487857Y-104394761D01*
X156345000Y-104442380D01*
X156106904Y-104442380D01*
X157011666Y-103442380D02*
X157630714Y-103442380D01*
X157297380Y-103823333D01*
X157440238Y-103823333D01*
X157535476Y-103870952D01*
X157583095Y-103918571D01*
X157630714Y-104013809D01*
X157630714Y-104251904D01*
X157583095Y-104347142D01*
X157535476Y-104394761D01*
X157440238Y-104442380D01*
X157154523Y-104442380D01*
X157059285Y-104394761D01*
X157011666Y-104347142D01*
%TO.C,REF\u002A\u002A*%
X138366666Y-64262380D02*
X138033333Y-63786190D01*
X137795238Y-64262380D02*
X137795238Y-63262380D01*
X138176190Y-63262380D01*
X138271428Y-63310000D01*
X138319047Y-63357619D01*
X138366666Y-63452857D01*
X138366666Y-63595714D01*
X138319047Y-63690952D01*
X138271428Y-63738571D01*
X138176190Y-63786190D01*
X137795238Y-63786190D01*
X138795238Y-63738571D02*
X139128571Y-63738571D01*
X139271428Y-64262380D02*
X138795238Y-64262380D01*
X138795238Y-63262380D01*
X139271428Y-63262380D01*
X140033333Y-63738571D02*
X139700000Y-63738571D01*
X139700000Y-64262380D02*
X139700000Y-63262380D01*
X140176190Y-63262380D01*
X140700000Y-63262380D02*
X140700000Y-63500476D01*
X140461904Y-63405238D02*
X140700000Y-63500476D01*
X140938095Y-63405238D01*
X140557142Y-63690952D02*
X140700000Y-63500476D01*
X140842857Y-63690952D01*
X141461904Y-63262380D02*
X141461904Y-63500476D01*
X141223809Y-63405238D02*
X141461904Y-63500476D01*
X141700000Y-63405238D01*
X141319047Y-63690952D02*
X141461904Y-63500476D01*
X141604761Y-63690952D01*
X138366666Y-113792380D02*
X138033333Y-113316190D01*
X137795238Y-113792380D02*
X137795238Y-112792380D01*
X138176190Y-112792380D01*
X138271428Y-112840000D01*
X138319047Y-112887619D01*
X138366666Y-112982857D01*
X138366666Y-113125714D01*
X138319047Y-113220952D01*
X138271428Y-113268571D01*
X138176190Y-113316190D01*
X137795238Y-113316190D01*
X138795238Y-113268571D02*
X139128571Y-113268571D01*
X139271428Y-113792380D02*
X138795238Y-113792380D01*
X138795238Y-112792380D01*
X139271428Y-112792380D01*
X140033333Y-113268571D02*
X139700000Y-113268571D01*
X139700000Y-113792380D02*
X139700000Y-112792380D01*
X140176190Y-112792380D01*
X140700000Y-112792380D02*
X140700000Y-113030476D01*
X140461904Y-112935238D02*
X140700000Y-113030476D01*
X140938095Y-112935238D01*
X140557142Y-113220952D02*
X140700000Y-113030476D01*
X140842857Y-113220952D01*
X141461904Y-112792380D02*
X141461904Y-113030476D01*
X141223809Y-112935238D02*
X141461904Y-113030476D01*
X141700000Y-112935238D01*
X141319047Y-113220952D02*
X141461904Y-113030476D01*
X141604761Y-113220952D01*
X205676666Y-113792380D02*
X205343333Y-113316190D01*
X205105238Y-113792380D02*
X205105238Y-112792380D01*
X205486190Y-112792380D01*
X205581428Y-112840000D01*
X205629047Y-112887619D01*
X205676666Y-112982857D01*
X205676666Y-113125714D01*
X205629047Y-113220952D01*
X205581428Y-113268571D01*
X205486190Y-113316190D01*
X205105238Y-113316190D01*
X206105238Y-113268571D02*
X206438571Y-113268571D01*
X206581428Y-113792380D02*
X206105238Y-113792380D01*
X206105238Y-112792380D01*
X206581428Y-112792380D01*
X207343333Y-113268571D02*
X207010000Y-113268571D01*
X207010000Y-113792380D02*
X207010000Y-112792380D01*
X207486190Y-112792380D01*
X208010000Y-112792380D02*
X208010000Y-113030476D01*
X207771904Y-112935238D02*
X208010000Y-113030476D01*
X208248095Y-112935238D01*
X207867142Y-113220952D02*
X208010000Y-113030476D01*
X208152857Y-113220952D01*
X208771904Y-112792380D02*
X208771904Y-113030476D01*
X208533809Y-112935238D02*
X208771904Y-113030476D01*
X209010000Y-112935238D01*
X208629047Y-113220952D02*
X208771904Y-113030476D01*
X208914761Y-113220952D01*
X205676666Y-64262380D02*
X205343333Y-63786190D01*
X205105238Y-64262380D02*
X205105238Y-63262380D01*
X205486190Y-63262380D01*
X205581428Y-63310000D01*
X205629047Y-63357619D01*
X205676666Y-63452857D01*
X205676666Y-63595714D01*
X205629047Y-63690952D01*
X205581428Y-63738571D01*
X205486190Y-63786190D01*
X205105238Y-63786190D01*
X206105238Y-63738571D02*
X206438571Y-63738571D01*
X206581428Y-64262380D02*
X206105238Y-64262380D01*
X206105238Y-63262380D01*
X206581428Y-63262380D01*
X207343333Y-63738571D02*
X207010000Y-63738571D01*
X207010000Y-64262380D02*
X207010000Y-63262380D01*
X207486190Y-63262380D01*
X208010000Y-63262380D02*
X208010000Y-63500476D01*
X207771904Y-63405238D02*
X208010000Y-63500476D01*
X208248095Y-63405238D01*
X207867142Y-63690952D02*
X208010000Y-63500476D01*
X208152857Y-63690952D01*
X208771904Y-63262380D02*
X208771904Y-63500476D01*
X208533809Y-63405238D02*
X208771904Y-63500476D01*
X209010000Y-63405238D01*
X208629047Y-63690952D02*
X208771904Y-63500476D01*
X208914761Y-63690952D01*
%TO.C,R12*%
X125202380Y-105812857D02*
X124726190Y-106146190D01*
X125202380Y-106384285D02*
X124202380Y-106384285D01*
X124202380Y-106003333D01*
X124250000Y-105908095D01*
X124297619Y-105860476D01*
X124392857Y-105812857D01*
X124535714Y-105812857D01*
X124630952Y-105860476D01*
X124678571Y-105908095D01*
X124726190Y-106003333D01*
X124726190Y-106384285D01*
X125202380Y-104860476D02*
X125202380Y-105431904D01*
X125202380Y-105146190D02*
X124202380Y-105146190D01*
X124345238Y-105241428D01*
X124440476Y-105336666D01*
X124488095Y-105431904D01*
X124297619Y-104479523D02*
X124250000Y-104431904D01*
X124202380Y-104336666D01*
X124202380Y-104098571D01*
X124250000Y-104003333D01*
X124297619Y-103955714D01*
X124392857Y-103908095D01*
X124488095Y-103908095D01*
X124630952Y-103955714D01*
X125202380Y-104527142D01*
X125202380Y-103908095D01*
%TO.C,R11*%
X125202380Y-90572857D02*
X124726190Y-90906190D01*
X125202380Y-91144285D02*
X124202380Y-91144285D01*
X124202380Y-90763333D01*
X124250000Y-90668095D01*
X124297619Y-90620476D01*
X124392857Y-90572857D01*
X124535714Y-90572857D01*
X124630952Y-90620476D01*
X124678571Y-90668095D01*
X124726190Y-90763333D01*
X124726190Y-91144285D01*
X125202380Y-89620476D02*
X125202380Y-90191904D01*
X125202380Y-89906190D02*
X124202380Y-89906190D01*
X124345238Y-90001428D01*
X124440476Y-90096666D01*
X124488095Y-90191904D01*
X125202380Y-88668095D02*
X125202380Y-89239523D01*
X125202380Y-88953809D02*
X124202380Y-88953809D01*
X124345238Y-89049047D01*
X124440476Y-89144285D01*
X124488095Y-89239523D01*
%TO.C,R10*%
X125202380Y-75332857D02*
X124726190Y-75666190D01*
X125202380Y-75904285D02*
X124202380Y-75904285D01*
X124202380Y-75523333D01*
X124250000Y-75428095D01*
X124297619Y-75380476D01*
X124392857Y-75332857D01*
X124535714Y-75332857D01*
X124630952Y-75380476D01*
X124678571Y-75428095D01*
X124726190Y-75523333D01*
X124726190Y-75904285D01*
X125202380Y-74380476D02*
X125202380Y-74951904D01*
X125202380Y-74666190D02*
X124202380Y-74666190D01*
X124345238Y-74761428D01*
X124440476Y-74856666D01*
X124488095Y-74951904D01*
X124202380Y-73761428D02*
X124202380Y-73666190D01*
X124250000Y-73570952D01*
X124297619Y-73523333D01*
X124392857Y-73475714D01*
X124583333Y-73428095D01*
X124821428Y-73428095D01*
X125011904Y-73475714D01*
X125107142Y-73523333D01*
X125154761Y-73570952D01*
X125202380Y-73666190D01*
X125202380Y-73761428D01*
X125154761Y-73856666D01*
X125107142Y-73904285D01*
X125011904Y-73951904D01*
X124821428Y-73999523D01*
X124583333Y-73999523D01*
X124392857Y-73951904D01*
X124297619Y-73904285D01*
X124250000Y-73856666D01*
X124202380Y-73761428D01*
%TO.C,R9*%
X122082380Y-105336666D02*
X121606190Y-105670000D01*
X122082380Y-105908095D02*
X121082380Y-105908095D01*
X121082380Y-105527142D01*
X121130000Y-105431904D01*
X121177619Y-105384285D01*
X121272857Y-105336666D01*
X121415714Y-105336666D01*
X121510952Y-105384285D01*
X121558571Y-105431904D01*
X121606190Y-105527142D01*
X121606190Y-105908095D01*
X122082380Y-104860476D02*
X122082380Y-104670000D01*
X122034761Y-104574761D01*
X121987142Y-104527142D01*
X121844285Y-104431904D01*
X121653809Y-104384285D01*
X121272857Y-104384285D01*
X121177619Y-104431904D01*
X121130000Y-104479523D01*
X121082380Y-104574761D01*
X121082380Y-104765238D01*
X121130000Y-104860476D01*
X121177619Y-104908095D01*
X121272857Y-104955714D01*
X121510952Y-104955714D01*
X121606190Y-104908095D01*
X121653809Y-104860476D01*
X121701428Y-104765238D01*
X121701428Y-104574761D01*
X121653809Y-104479523D01*
X121606190Y-104431904D01*
X121510952Y-104384285D01*
%TO.C,R8*%
X122082380Y-90096666D02*
X121606190Y-90430000D01*
X122082380Y-90668095D02*
X121082380Y-90668095D01*
X121082380Y-90287142D01*
X121130000Y-90191904D01*
X121177619Y-90144285D01*
X121272857Y-90096666D01*
X121415714Y-90096666D01*
X121510952Y-90144285D01*
X121558571Y-90191904D01*
X121606190Y-90287142D01*
X121606190Y-90668095D01*
X121510952Y-89525238D02*
X121463333Y-89620476D01*
X121415714Y-89668095D01*
X121320476Y-89715714D01*
X121272857Y-89715714D01*
X121177619Y-89668095D01*
X121130000Y-89620476D01*
X121082380Y-89525238D01*
X121082380Y-89334761D01*
X121130000Y-89239523D01*
X121177619Y-89191904D01*
X121272857Y-89144285D01*
X121320476Y-89144285D01*
X121415714Y-89191904D01*
X121463333Y-89239523D01*
X121510952Y-89334761D01*
X121510952Y-89525238D01*
X121558571Y-89620476D01*
X121606190Y-89668095D01*
X121701428Y-89715714D01*
X121891904Y-89715714D01*
X121987142Y-89668095D01*
X122034761Y-89620476D01*
X122082380Y-89525238D01*
X122082380Y-89334761D01*
X122034761Y-89239523D01*
X121987142Y-89191904D01*
X121891904Y-89144285D01*
X121701428Y-89144285D01*
X121606190Y-89191904D01*
X121558571Y-89239523D01*
X121510952Y-89334761D01*
%TO.C,R7*%
X122082380Y-74856666D02*
X121606190Y-75190000D01*
X122082380Y-75428095D02*
X121082380Y-75428095D01*
X121082380Y-75047142D01*
X121130000Y-74951904D01*
X121177619Y-74904285D01*
X121272857Y-74856666D01*
X121415714Y-74856666D01*
X121510952Y-74904285D01*
X121558571Y-74951904D01*
X121606190Y-75047142D01*
X121606190Y-75428095D01*
X121082380Y-74523333D02*
X121082380Y-73856666D01*
X122082380Y-74285238D01*
%TO.C,R6*%
X90243333Y-105572380D02*
X89910000Y-105096190D01*
X89671904Y-105572380D02*
X89671904Y-104572380D01*
X90052857Y-104572380D01*
X90148095Y-104620000D01*
X90195714Y-104667619D01*
X90243333Y-104762857D01*
X90243333Y-104905714D01*
X90195714Y-105000952D01*
X90148095Y-105048571D01*
X90052857Y-105096190D01*
X89671904Y-105096190D01*
X91100476Y-104572380D02*
X90910000Y-104572380D01*
X90814761Y-104620000D01*
X90767142Y-104667619D01*
X90671904Y-104810476D01*
X90624285Y-105000952D01*
X90624285Y-105381904D01*
X90671904Y-105477142D01*
X90719523Y-105524761D01*
X90814761Y-105572380D01*
X91005238Y-105572380D01*
X91100476Y-105524761D01*
X91148095Y-105477142D01*
X91195714Y-105381904D01*
X91195714Y-105143809D01*
X91148095Y-105048571D01*
X91100476Y-105000952D01*
X91005238Y-104953333D01*
X90814761Y-104953333D01*
X90719523Y-105000952D01*
X90671904Y-105048571D01*
X90624285Y-105143809D01*
%TO.C,R5*%
X90243333Y-113192380D02*
X89910000Y-112716190D01*
X89671904Y-113192380D02*
X89671904Y-112192380D01*
X90052857Y-112192380D01*
X90148095Y-112240000D01*
X90195714Y-112287619D01*
X90243333Y-112382857D01*
X90243333Y-112525714D01*
X90195714Y-112620952D01*
X90148095Y-112668571D01*
X90052857Y-112716190D01*
X89671904Y-112716190D01*
X91148095Y-112192380D02*
X90671904Y-112192380D01*
X90624285Y-112668571D01*
X90671904Y-112620952D01*
X90767142Y-112573333D01*
X91005238Y-112573333D01*
X91100476Y-112620952D01*
X91148095Y-112668571D01*
X91195714Y-112763809D01*
X91195714Y-113001904D01*
X91148095Y-113097142D01*
X91100476Y-113144761D01*
X91005238Y-113192380D01*
X90767142Y-113192380D01*
X90671904Y-113144761D01*
X90624285Y-113097142D01*
%TO.C,R4*%
X90243333Y-90332380D02*
X89910000Y-89856190D01*
X89671904Y-90332380D02*
X89671904Y-89332380D01*
X90052857Y-89332380D01*
X90148095Y-89380000D01*
X90195714Y-89427619D01*
X90243333Y-89522857D01*
X90243333Y-89665714D01*
X90195714Y-89760952D01*
X90148095Y-89808571D01*
X90052857Y-89856190D01*
X89671904Y-89856190D01*
X91100476Y-89665714D02*
X91100476Y-90332380D01*
X90862380Y-89284761D02*
X90624285Y-89999047D01*
X91243333Y-89999047D01*
%TO.C,R3*%
X90243333Y-97952380D02*
X89910000Y-97476190D01*
X89671904Y-97952380D02*
X89671904Y-96952380D01*
X90052857Y-96952380D01*
X90148095Y-97000000D01*
X90195714Y-97047619D01*
X90243333Y-97142857D01*
X90243333Y-97285714D01*
X90195714Y-97380952D01*
X90148095Y-97428571D01*
X90052857Y-97476190D01*
X89671904Y-97476190D01*
X90576666Y-96952380D02*
X91195714Y-96952380D01*
X90862380Y-97333333D01*
X91005238Y-97333333D01*
X91100476Y-97380952D01*
X91148095Y-97428571D01*
X91195714Y-97523809D01*
X91195714Y-97761904D01*
X91148095Y-97857142D01*
X91100476Y-97904761D01*
X91005238Y-97952380D01*
X90719523Y-97952380D01*
X90624285Y-97904761D01*
X90576666Y-97857142D01*
%TO.C,R2*%
X90243333Y-75092380D02*
X89910000Y-74616190D01*
X89671904Y-75092380D02*
X89671904Y-74092380D01*
X90052857Y-74092380D01*
X90148095Y-74140000D01*
X90195714Y-74187619D01*
X90243333Y-74282857D01*
X90243333Y-74425714D01*
X90195714Y-74520952D01*
X90148095Y-74568571D01*
X90052857Y-74616190D01*
X89671904Y-74616190D01*
X90624285Y-74187619D02*
X90671904Y-74140000D01*
X90767142Y-74092380D01*
X91005238Y-74092380D01*
X91100476Y-74140000D01*
X91148095Y-74187619D01*
X91195714Y-74282857D01*
X91195714Y-74378095D01*
X91148095Y-74520952D01*
X90576666Y-75092380D01*
X91195714Y-75092380D01*
%TO.C,R1*%
X90243333Y-82712380D02*
X89910000Y-82236190D01*
X89671904Y-82712380D02*
X89671904Y-81712380D01*
X90052857Y-81712380D01*
X90148095Y-81760000D01*
X90195714Y-81807619D01*
X90243333Y-81902857D01*
X90243333Y-82045714D01*
X90195714Y-82140952D01*
X90148095Y-82188571D01*
X90052857Y-82236190D01*
X89671904Y-82236190D01*
X91195714Y-82712380D02*
X90624285Y-82712380D01*
X90910000Y-82712380D02*
X90910000Y-81712380D01*
X90814761Y-81855238D01*
X90719523Y-81950476D01*
X90624285Y-81998095D01*
%TO.C,J5*%
X108886666Y-84752380D02*
X108886666Y-85466666D01*
X108839047Y-85609523D01*
X108743809Y-85704761D01*
X108600952Y-85752380D01*
X108505714Y-85752380D01*
X109839047Y-84752380D02*
X109362857Y-84752380D01*
X109315238Y-85228571D01*
X109362857Y-85180952D01*
X109458095Y-85133333D01*
X109696190Y-85133333D01*
X109791428Y-85180952D01*
X109839047Y-85228571D01*
X109886666Y-85323809D01*
X109886666Y-85561904D01*
X109839047Y-85657142D01*
X109791428Y-85704761D01*
X109696190Y-85752380D01*
X109458095Y-85752380D01*
X109362857Y-85704761D01*
X109315238Y-85657142D01*
%TO.C,J4*%
X108886666Y-69512380D02*
X108886666Y-70226666D01*
X108839047Y-70369523D01*
X108743809Y-70464761D01*
X108600952Y-70512380D01*
X108505714Y-70512380D01*
X109791428Y-69845714D02*
X109791428Y-70512380D01*
X109553333Y-69464761D02*
X109315238Y-70179047D01*
X109934285Y-70179047D01*
%TO.C,D4*%
X187856904Y-104442380D02*
X187856904Y-103442380D01*
X188095000Y-103442380D01*
X188237857Y-103490000D01*
X188333095Y-103585238D01*
X188380714Y-103680476D01*
X188428333Y-103870952D01*
X188428333Y-104013809D01*
X188380714Y-104204285D01*
X188333095Y-104299523D01*
X188237857Y-104394761D01*
X188095000Y-104442380D01*
X187856904Y-104442380D01*
X189285476Y-103775714D02*
X189285476Y-104442380D01*
X189047380Y-103394761D02*
X188809285Y-104109047D01*
X189428333Y-104109047D01*
%TO.C,D2*%
X187856904Y-73962380D02*
X187856904Y-72962380D01*
X188095000Y-72962380D01*
X188237857Y-73010000D01*
X188333095Y-73105238D01*
X188380714Y-73200476D01*
X188428333Y-73390952D01*
X188428333Y-73533809D01*
X188380714Y-73724285D01*
X188333095Y-73819523D01*
X188237857Y-73914761D01*
X188095000Y-73962380D01*
X187856904Y-73962380D01*
X188809285Y-73057619D02*
X188856904Y-73010000D01*
X188952142Y-72962380D01*
X189190238Y-72962380D01*
X189285476Y-73010000D01*
X189333095Y-73057619D01*
X189380714Y-73152857D01*
X189380714Y-73248095D01*
X189333095Y-73390952D01*
X188761666Y-73962380D01*
X189380714Y-73962380D01*
%TO.C,D1*%
X156106904Y-73962380D02*
X156106904Y-72962380D01*
X156345000Y-72962380D01*
X156487857Y-73010000D01*
X156583095Y-73105238D01*
X156630714Y-73200476D01*
X156678333Y-73390952D01*
X156678333Y-73533809D01*
X156630714Y-73724285D01*
X156583095Y-73819523D01*
X156487857Y-73914761D01*
X156345000Y-73962380D01*
X156106904Y-73962380D01*
X157630714Y-73962380D02*
X157059285Y-73962380D01*
X157345000Y-73962380D02*
X157345000Y-72962380D01*
X157249761Y-73105238D01*
X157154523Y-73200476D01*
X157059285Y-73248095D01*
%TD*%
M02*
