%TF.GenerationSoftware,KiCad,Pcbnew,(5.1.9)-1*%
%TF.CreationDate,2022-04-08T15:22:57-04:00*%
%TF.ProjectId,March_PCB_Design_2_2b2848RGB,4d617263-685f-4504-9342-5f4465736967,rev?*%
%TF.SameCoordinates,Original*%
%TF.FileFunction,Copper,L2,Bot*%
%TF.FilePolarity,Positive*%
%FSLAX46Y46*%
G04 Gerber Fmt 4.6, Leading zero omitted, Abs format (unit mm)*
G04 Created by KiCad (PCBNEW (5.1.9)-1) date 2022-04-08 15:22:57*
%MOMM*%
%LPD*%
G01*
G04 APERTURE LIST*
%TA.AperFunction,NonConductor*%
%ADD10C,0.300000*%
%TD*%
%TA.AperFunction,ComponentPad*%
%ADD11O,1.600000X1.600000*%
%TD*%
%TA.AperFunction,ComponentPad*%
%ADD12R,1.600000X1.600000*%
%TD*%
%TA.AperFunction,ComponentPad*%
%ADD13O,1.700000X1.700000*%
%TD*%
%TA.AperFunction,ComponentPad*%
%ADD14R,1.700000X1.700000*%
%TD*%
%TA.AperFunction,ComponentPad*%
%ADD15O,1.070000X1.800000*%
%TD*%
%TA.AperFunction,ComponentPad*%
%ADD16R,1.070000X1.800000*%
%TD*%
%TA.AperFunction,ComponentPad*%
%ADD17C,2.900000*%
%TD*%
%TA.AperFunction,ConnectorPad*%
%ADD18C,5.000000*%
%TD*%
%TA.AperFunction,ComponentPad*%
%ADD19C,2.100000*%
%TD*%
%TA.AperFunction,ComponentPad*%
%ADD20C,2.250000*%
%TD*%
%TA.AperFunction,ComponentPad*%
%ADD21C,2.050000*%
%TD*%
%TA.AperFunction,Conductor*%
%ADD22C,0.250000*%
%TD*%
G04 APERTURE END LIST*
D10*
X114197142Y-64662857D02*
X115340000Y-64662857D01*
X114768571Y-64091428D02*
X114768571Y-65234285D01*
X116840000Y-64091428D02*
X115982857Y-64091428D01*
X116411428Y-64091428D02*
X116411428Y-65591428D01*
X116268571Y-65377142D01*
X116125714Y-65234285D01*
X115982857Y-65162857D01*
X117411428Y-65448571D02*
X117482857Y-65520000D01*
X117625714Y-65591428D01*
X117982857Y-65591428D01*
X118125714Y-65520000D01*
X118197142Y-65448571D01*
X118268571Y-65305714D01*
X118268571Y-65162857D01*
X118197142Y-64948571D01*
X117340000Y-64091428D01*
X118268571Y-64091428D01*
X118697142Y-65591428D02*
X119197142Y-64091428D01*
X119697142Y-65591428D01*
X105307142Y-62122857D02*
X106450000Y-62122857D01*
X107950000Y-61551428D02*
X107092857Y-61551428D01*
X107521428Y-61551428D02*
X107521428Y-63051428D01*
X107378571Y-62837142D01*
X107235714Y-62694285D01*
X107092857Y-62622857D01*
X108521428Y-62908571D02*
X108592857Y-62980000D01*
X108735714Y-63051428D01*
X109092857Y-63051428D01*
X109235714Y-62980000D01*
X109307142Y-62908571D01*
X109378571Y-62765714D01*
X109378571Y-62622857D01*
X109307142Y-62408571D01*
X108450000Y-61551428D01*
X109378571Y-61551428D01*
X109807142Y-63051428D02*
X110307142Y-61551428D01*
X110807142Y-63051428D01*
X99187142Y-65520000D02*
X99044285Y-65591428D01*
X98830000Y-65591428D01*
X98615714Y-65520000D01*
X98472857Y-65377142D01*
X98401428Y-65234285D01*
X98330000Y-64948571D01*
X98330000Y-64734285D01*
X98401428Y-64448571D01*
X98472857Y-64305714D01*
X98615714Y-64162857D01*
X98830000Y-64091428D01*
X98972857Y-64091428D01*
X99187142Y-64162857D01*
X99258571Y-64234285D01*
X99258571Y-64734285D01*
X98972857Y-64734285D01*
X99901428Y-64091428D02*
X99901428Y-65591428D01*
X100758571Y-64091428D01*
X100758571Y-65591428D01*
X101472857Y-64091428D02*
X101472857Y-65591428D01*
X101830000Y-65591428D01*
X102044285Y-65520000D01*
X102187142Y-65377142D01*
X102258571Y-65234285D01*
X102330000Y-64948571D01*
X102330000Y-64734285D01*
X102258571Y-64448571D01*
X102187142Y-64305714D01*
X102044285Y-64162857D01*
X101830000Y-64091428D01*
X101472857Y-64091428D01*
D11*
%TO.P,J6,8*%
%TO.N,+12V*%
X113030000Y-102870000D03*
%TO.P,J6,4*%
%TO.N,Net-(J6-Pad4)*%
X105410000Y-110490000D03*
%TO.P,J6,7*%
%TO.N,Net-(J6-Pad7)*%
X113030000Y-105410000D03*
%TO.P,J6,3*%
%TO.N,Net-(J6-Pad3)*%
X105410000Y-107950000D03*
%TO.P,J6,6*%
%TO.N,Net-(J6-Pad6)*%
X113030000Y-107950000D03*
%TO.P,J6,2*%
%TO.N,-12V*%
X105410000Y-105410000D03*
%TO.P,J6,5*%
%TO.N,Net-(J6-Pad5)*%
X113030000Y-110490000D03*
D12*
%TO.P,J6,1*%
%TO.N,Net-(J6-Pad1)*%
X105410000Y-102870000D03*
%TD*%
D13*
%TO.P,REF\u002A\u002A,3*%
%TO.N,+12V*%
X110490000Y-64770000D03*
%TO.P,REF\u002A\u002A,2*%
%TO.N,-12V*%
X107950000Y-64770000D03*
D14*
%TO.P,REF\u002A\u002A,1*%
%TO.N,GND*%
X105410000Y-64770000D03*
%TD*%
D15*
%TO.P,D3,4*%
%TO.N,Net-(D1-Pad4)*%
X158750000Y-107950000D03*
%TO.P,D3,3*%
%TO.N,GND*%
X157480000Y-107950000D03*
%TO.P,D3,2*%
%TO.N,Net-(D1-Pad2)*%
X156210000Y-107950000D03*
D16*
%TO.P,D3,1*%
%TO.N,Net-(D1-Pad1)*%
X154940000Y-107950000D03*
%TD*%
D17*
%TO.P,REF\u002A\u002A,1*%
%TO.N,N/C*%
X139700000Y-67310000D03*
D18*
X139700000Y-67310000D03*
%TD*%
D17*
%TO.P,REF\u002A\u002A,1*%
%TO.N,N/C*%
X139700000Y-116840000D03*
D18*
X139700000Y-116840000D03*
%TD*%
D17*
%TO.P,REF\u002A\u002A,1*%
%TO.N,N/C*%
X207010000Y-116840000D03*
D18*
X207010000Y-116840000D03*
%TD*%
%TO.P,REF\u002A\u002A,1*%
%TO.N,N/C*%
X207010000Y-67310000D03*
D17*
X207010000Y-67310000D03*
%TD*%
D19*
%TO.P,R12,2*%
%TO.N,Net-(J6-Pad1)*%
X127000000Y-102870000D03*
%TO.P,R12,1*%
%TO.N,Net-(D1-Pad1)*%
%TA.AperFunction,ComponentPad*%
G36*
G01*
X127800001Y-108520000D02*
X126199999Y-108520000D01*
G75*
G02*
X125950000Y-108270001I0J249999D01*
G01*
X125950000Y-106669999D01*
G75*
G02*
X126199999Y-106420000I249999J0D01*
G01*
X127800001Y-106420000D01*
G75*
G02*
X128050000Y-106669999I0J-249999D01*
G01*
X128050000Y-108270001D01*
G75*
G02*
X127800001Y-108520000I-249999J0D01*
G01*
G37*
%TD.AperFunction*%
%TD*%
%TO.P,R11,2*%
%TO.N,Net-(J5-Pad1)*%
X127000000Y-87630000D03*
%TO.P,R11,1*%
%TO.N,Net-(D1-Pad2)*%
%TA.AperFunction,ComponentPad*%
G36*
G01*
X127800001Y-93280000D02*
X126199999Y-93280000D01*
G75*
G02*
X125950000Y-93030001I0J249999D01*
G01*
X125950000Y-91429999D01*
G75*
G02*
X126199999Y-91180000I249999J0D01*
G01*
X127800001Y-91180000D01*
G75*
G02*
X128050000Y-91429999I0J-249999D01*
G01*
X128050000Y-93030001D01*
G75*
G02*
X127800001Y-93280000I-249999J0D01*
G01*
G37*
%TD.AperFunction*%
%TD*%
%TO.P,R10,2*%
%TO.N,Net-(J4-Pad1)*%
X127000000Y-72390000D03*
%TO.P,R10,1*%
%TO.N,Net-(D1-Pad4)*%
%TA.AperFunction,ComponentPad*%
G36*
G01*
X127800001Y-78040000D02*
X126199999Y-78040000D01*
G75*
G02*
X125950000Y-77790001I0J249999D01*
G01*
X125950000Y-76189999D01*
G75*
G02*
X126199999Y-75940000I249999J0D01*
G01*
X127800001Y-75940000D01*
G75*
G02*
X128050000Y-76189999I0J-249999D01*
G01*
X128050000Y-77790001D01*
G75*
G02*
X127800001Y-78040000I-249999J0D01*
G01*
G37*
%TD.AperFunction*%
%TD*%
%TO.P,R9,2*%
%TO.N,Net-(J6-Pad6)*%
X119380000Y-107470000D03*
%TO.P,R9,1*%
%TO.N,Net-(J6-Pad1)*%
%TA.AperFunction,ComponentPad*%
G36*
G01*
X118579999Y-101820000D02*
X120180001Y-101820000D01*
G75*
G02*
X120430000Y-102069999I0J-249999D01*
G01*
X120430000Y-103670001D01*
G75*
G02*
X120180001Y-103920000I-249999J0D01*
G01*
X118579999Y-103920000D01*
G75*
G02*
X118330000Y-103670001I0J249999D01*
G01*
X118330000Y-102069999D01*
G75*
G02*
X118579999Y-101820000I249999J0D01*
G01*
G37*
%TD.AperFunction*%
%TD*%
%TO.P,R8,2*%
%TO.N,Net-(J5-Pad6)*%
X119380000Y-92230000D03*
%TO.P,R8,1*%
%TO.N,Net-(J5-Pad1)*%
%TA.AperFunction,ComponentPad*%
G36*
G01*
X118579999Y-86580000D02*
X120180001Y-86580000D01*
G75*
G02*
X120430000Y-86829999I0J-249999D01*
G01*
X120430000Y-88430001D01*
G75*
G02*
X120180001Y-88680000I-249999J0D01*
G01*
X118579999Y-88680000D01*
G75*
G02*
X118330000Y-88430001I0J249999D01*
G01*
X118330000Y-86829999D01*
G75*
G02*
X118579999Y-86580000I249999J0D01*
G01*
G37*
%TD.AperFunction*%
%TD*%
%TO.P,R7,2*%
%TO.N,Net-(J4-Pad6)*%
X119380000Y-76990000D03*
%TO.P,R7,1*%
%TO.N,Net-(J4-Pad1)*%
%TA.AperFunction,ComponentPad*%
G36*
G01*
X118579999Y-71340000D02*
X120180001Y-71340000D01*
G75*
G02*
X120430000Y-71589999I0J-249999D01*
G01*
X120430000Y-73190001D01*
G75*
G02*
X120180001Y-73440000I-249999J0D01*
G01*
X118579999Y-73440000D01*
G75*
G02*
X118330000Y-73190001I0J249999D01*
G01*
X118330000Y-71589999D01*
G75*
G02*
X118579999Y-71340000I249999J0D01*
G01*
G37*
%TD.AperFunction*%
%TD*%
%TO.P,R6,2*%
%TO.N,Net-(J3-Pad1)*%
X88110000Y-102870000D03*
%TO.P,R6,1*%
%TO.N,Net-(J6-Pad3)*%
%TA.AperFunction,ComponentPad*%
G36*
G01*
X93760000Y-102069999D02*
X93760000Y-103670001D01*
G75*
G02*
X93510001Y-103920000I-249999J0D01*
G01*
X91909999Y-103920000D01*
G75*
G02*
X91660000Y-103670001I0J249999D01*
G01*
X91660000Y-102069999D01*
G75*
G02*
X91909999Y-101820000I249999J0D01*
G01*
X93510001Y-101820000D01*
G75*
G02*
X93760000Y-102069999I0J-249999D01*
G01*
G37*
%TD.AperFunction*%
%TD*%
%TO.P,R5,2*%
%TO.N,GND*%
X88110000Y-110490000D03*
%TO.P,R5,1*%
%TO.N,Net-(J6-Pad6)*%
%TA.AperFunction,ComponentPad*%
G36*
G01*
X93760000Y-109689999D02*
X93760000Y-111290001D01*
G75*
G02*
X93510001Y-111540000I-249999J0D01*
G01*
X91909999Y-111540000D01*
G75*
G02*
X91660000Y-111290001I0J249999D01*
G01*
X91660000Y-109689999D01*
G75*
G02*
X91909999Y-109440000I249999J0D01*
G01*
X93510001Y-109440000D01*
G75*
G02*
X93760000Y-109689999I0J-249999D01*
G01*
G37*
%TD.AperFunction*%
%TD*%
%TO.P,R4,2*%
%TO.N,Net-(J2-Pad1)*%
X88110000Y-87630000D03*
%TO.P,R4,1*%
%TO.N,Net-(J5-Pad3)*%
%TA.AperFunction,ComponentPad*%
G36*
G01*
X93760000Y-86829999D02*
X93760000Y-88430001D01*
G75*
G02*
X93510001Y-88680000I-249999J0D01*
G01*
X91909999Y-88680000D01*
G75*
G02*
X91660000Y-88430001I0J249999D01*
G01*
X91660000Y-86829999D01*
G75*
G02*
X91909999Y-86580000I249999J0D01*
G01*
X93510001Y-86580000D01*
G75*
G02*
X93760000Y-86829999I0J-249999D01*
G01*
G37*
%TD.AperFunction*%
%TD*%
%TO.P,R3,2*%
%TO.N,GND*%
X88110000Y-95250000D03*
%TO.P,R3,1*%
%TO.N,Net-(J5-Pad6)*%
%TA.AperFunction,ComponentPad*%
G36*
G01*
X93760000Y-94449999D02*
X93760000Y-96050001D01*
G75*
G02*
X93510001Y-96300000I-249999J0D01*
G01*
X91909999Y-96300000D01*
G75*
G02*
X91660000Y-96050001I0J249999D01*
G01*
X91660000Y-94449999D01*
G75*
G02*
X91909999Y-94200000I249999J0D01*
G01*
X93510001Y-94200000D01*
G75*
G02*
X93760000Y-94449999I0J-249999D01*
G01*
G37*
%TD.AperFunction*%
%TD*%
%TO.P,R2,2*%
%TO.N,Net-(J1-Pad1)*%
X88110000Y-72390000D03*
%TO.P,R2,1*%
%TO.N,Net-(J4-Pad3)*%
%TA.AperFunction,ComponentPad*%
G36*
G01*
X93760000Y-71589999D02*
X93760000Y-73190001D01*
G75*
G02*
X93510001Y-73440000I-249999J0D01*
G01*
X91909999Y-73440000D01*
G75*
G02*
X91660000Y-73190001I0J249999D01*
G01*
X91660000Y-71589999D01*
G75*
G02*
X91909999Y-71340000I249999J0D01*
G01*
X93510001Y-71340000D01*
G75*
G02*
X93760000Y-71589999I0J-249999D01*
G01*
G37*
%TD.AperFunction*%
%TD*%
%TO.P,R1,2*%
%TO.N,GND*%
X88110000Y-80010000D03*
%TO.P,R1,1*%
%TO.N,Net-(J4-Pad6)*%
%TA.AperFunction,ComponentPad*%
G36*
G01*
X93760000Y-79209999D02*
X93760000Y-80810001D01*
G75*
G02*
X93510001Y-81060000I-249999J0D01*
G01*
X91909999Y-81060000D01*
G75*
G02*
X91660000Y-80810001I0J249999D01*
G01*
X91660000Y-79209999D01*
G75*
G02*
X91909999Y-78960000I249999J0D01*
G01*
X93510001Y-78960000D01*
G75*
G02*
X93760000Y-79209999I0J-249999D01*
G01*
G37*
%TD.AperFunction*%
%TD*%
D11*
%TO.P,J5,8*%
%TO.N,+12V*%
X113030000Y-87630000D03*
%TO.P,J5,4*%
%TO.N,Net-(J5-Pad4)*%
X105410000Y-95250000D03*
%TO.P,J5,7*%
%TO.N,Net-(J5-Pad7)*%
X113030000Y-90170000D03*
%TO.P,J5,3*%
%TO.N,Net-(J5-Pad3)*%
X105410000Y-92710000D03*
%TO.P,J5,6*%
%TO.N,Net-(J5-Pad6)*%
X113030000Y-92710000D03*
%TO.P,J5,2*%
%TO.N,-12V*%
X105410000Y-90170000D03*
%TO.P,J5,5*%
%TO.N,Net-(J5-Pad5)*%
X113030000Y-95250000D03*
D12*
%TO.P,J5,1*%
%TO.N,Net-(J5-Pad1)*%
X105410000Y-87630000D03*
%TD*%
D11*
%TO.P,J4,8*%
%TO.N,+12V*%
X113030000Y-72390000D03*
%TO.P,J4,4*%
%TO.N,Net-(J4-Pad4)*%
X105410000Y-80010000D03*
%TO.P,J4,7*%
%TO.N,Net-(J4-Pad7)*%
X113030000Y-74930000D03*
%TO.P,J4,3*%
%TO.N,Net-(J4-Pad3)*%
X105410000Y-77470000D03*
%TO.P,J4,6*%
%TO.N,Net-(J4-Pad6)*%
X113030000Y-77470000D03*
%TO.P,J4,2*%
%TO.N,-12V*%
X105410000Y-74930000D03*
%TO.P,J4,5*%
%TO.N,Net-(J4-Pad5)*%
X113030000Y-80010000D03*
D12*
%TO.P,J4,1*%
%TO.N,Net-(J4-Pad1)*%
X105410000Y-72390000D03*
%TD*%
D20*
%TO.P,J3,2*%
%TO.N,GND*%
X72390000Y-100330000D03*
X72390000Y-105410000D03*
X77470000Y-105410000D03*
X77470000Y-100330000D03*
D21*
%TO.P,J3,1*%
%TO.N,Net-(J3-Pad1)*%
X74930000Y-102870000D03*
%TD*%
D20*
%TO.P,J2,2*%
%TO.N,GND*%
X72390000Y-86360000D03*
X72390000Y-91440000D03*
X77470000Y-91440000D03*
X77470000Y-86360000D03*
D21*
%TO.P,J2,1*%
%TO.N,Net-(J2-Pad1)*%
X74930000Y-88900000D03*
%TD*%
D20*
%TO.P,J1,2*%
%TO.N,GND*%
X72390000Y-72390000D03*
X72390000Y-77470000D03*
X77470000Y-77470000D03*
X77470000Y-72390000D03*
D21*
%TO.P,J1,1*%
%TO.N,Net-(J1-Pad1)*%
X74930000Y-74930000D03*
%TD*%
D15*
%TO.P,D4,4*%
%TO.N,Net-(D1-Pad4)*%
X190500000Y-107950000D03*
%TO.P,D4,3*%
%TO.N,GND*%
X189230000Y-107950000D03*
%TO.P,D4,2*%
%TO.N,Net-(D1-Pad2)*%
X187960000Y-107950000D03*
D16*
%TO.P,D4,1*%
%TO.N,Net-(D1-Pad1)*%
X186690000Y-107950000D03*
%TD*%
D15*
%TO.P,D2,4*%
%TO.N,Net-(D1-Pad4)*%
X190500000Y-77470000D03*
%TO.P,D2,3*%
%TO.N,GND*%
X189230000Y-77470000D03*
%TO.P,D2,2*%
%TO.N,Net-(D1-Pad2)*%
X187960000Y-77470000D03*
D16*
%TO.P,D2,1*%
%TO.N,Net-(D1-Pad1)*%
X186690000Y-77470000D03*
%TD*%
D15*
%TO.P,D1,4*%
%TO.N,Net-(D1-Pad4)*%
X158750000Y-77470000D03*
%TO.P,D1,3*%
%TO.N,GND*%
X157480000Y-77470000D03*
%TO.P,D1,2*%
%TO.N,Net-(D1-Pad2)*%
X156210000Y-77470000D03*
D16*
%TO.P,D1,1*%
%TO.N,Net-(D1-Pad1)*%
X154940000Y-77470000D03*
%TD*%
D22*
%TO.N,+12V*%
X110490000Y-72390000D02*
X110490000Y-102870000D01*
X110490000Y-102870000D02*
X113030000Y-102870000D01*
X113030000Y-87630000D02*
X110490000Y-87630000D01*
X113030000Y-72390000D02*
X110490000Y-72390000D01*
X110490000Y-72390000D02*
X110490000Y-64770000D01*
%TO.N,-12V*%
X107950000Y-105410000D02*
X105410000Y-105410000D01*
X107950000Y-105410000D02*
X107950000Y-74930000D01*
X107950000Y-74930000D02*
X105410000Y-74930000D01*
X105410000Y-90170000D02*
X107950000Y-90170000D01*
X107950000Y-74930000D02*
X107950000Y-64770000D01*
%TD*%
M02*
