%TF.GenerationSoftware,KiCad,Pcbnew,(5.1.9)-1*%
%TF.CreationDate,2022-04-08T15:22:57-04:00*%
%TF.ProjectId,March_PCB_Design_2_2b2848RGB,4d617263-685f-4504-9342-5f4465736967,rev?*%
%TF.SameCoordinates,Original*%
%TF.FileFunction,Soldermask,Top*%
%TF.FilePolarity,Negative*%
%FSLAX46Y46*%
G04 Gerber Fmt 4.6, Leading zero omitted, Abs format (unit mm)*
G04 Created by KiCad (PCBNEW (5.1.9)-1) date 2022-04-08 15:22:57*
%MOMM*%
%LPD*%
G01*
G04 APERTURE LIST*
%ADD10O,1.600000X1.600000*%
%ADD11R,1.600000X1.600000*%
%ADD12O,1.700000X1.700000*%
%ADD13R,1.700000X1.700000*%
%ADD14O,1.070000X1.800000*%
%ADD15R,1.070000X1.800000*%
%ADD16C,2.900000*%
%ADD17C,5.000000*%
%ADD18C,2.100000*%
%ADD19C,2.250000*%
%ADD20C,2.050000*%
G04 APERTURE END LIST*
D10*
%TO.C,J6*%
X113030000Y-102870000D03*
X105410000Y-110490000D03*
X113030000Y-105410000D03*
X105410000Y-107950000D03*
X113030000Y-107950000D03*
X105410000Y-105410000D03*
X113030000Y-110490000D03*
D11*
X105410000Y-102870000D03*
%TD*%
D12*
%TO.C,REF\u002A\u002A*%
X110490000Y-64770000D03*
X107950000Y-64770000D03*
D13*
X105410000Y-64770000D03*
%TD*%
D14*
%TO.C,D3*%
X158750000Y-107950000D03*
X157480000Y-107950000D03*
X156210000Y-107950000D03*
D15*
X154940000Y-107950000D03*
%TD*%
D16*
%TO.C,REF\u002A\u002A*%
X139700000Y-67310000D03*
D17*
X139700000Y-67310000D03*
%TD*%
D16*
%TO.C,REF\u002A\u002A*%
X139700000Y-116840000D03*
D17*
X139700000Y-116840000D03*
%TD*%
D16*
%TO.C,REF\u002A\u002A*%
X207010000Y-116840000D03*
D17*
X207010000Y-116840000D03*
%TD*%
%TO.C,REF\u002A\u002A*%
X207010000Y-67310000D03*
D16*
X207010000Y-67310000D03*
%TD*%
D18*
%TO.C,R12*%
X127000000Y-102870000D03*
G36*
G01*
X127800001Y-108520000D02*
X126199999Y-108520000D01*
G75*
G02*
X125950000Y-108270001I0J249999D01*
G01*
X125950000Y-106669999D01*
G75*
G02*
X126199999Y-106420000I249999J0D01*
G01*
X127800001Y-106420000D01*
G75*
G02*
X128050000Y-106669999I0J-249999D01*
G01*
X128050000Y-108270001D01*
G75*
G02*
X127800001Y-108520000I-249999J0D01*
G01*
G37*
%TD*%
%TO.C,R11*%
X127000000Y-87630000D03*
G36*
G01*
X127800001Y-93280000D02*
X126199999Y-93280000D01*
G75*
G02*
X125950000Y-93030001I0J249999D01*
G01*
X125950000Y-91429999D01*
G75*
G02*
X126199999Y-91180000I249999J0D01*
G01*
X127800001Y-91180000D01*
G75*
G02*
X128050000Y-91429999I0J-249999D01*
G01*
X128050000Y-93030001D01*
G75*
G02*
X127800001Y-93280000I-249999J0D01*
G01*
G37*
%TD*%
%TO.C,R10*%
X127000000Y-72390000D03*
G36*
G01*
X127800001Y-78040000D02*
X126199999Y-78040000D01*
G75*
G02*
X125950000Y-77790001I0J249999D01*
G01*
X125950000Y-76189999D01*
G75*
G02*
X126199999Y-75940000I249999J0D01*
G01*
X127800001Y-75940000D01*
G75*
G02*
X128050000Y-76189999I0J-249999D01*
G01*
X128050000Y-77790001D01*
G75*
G02*
X127800001Y-78040000I-249999J0D01*
G01*
G37*
%TD*%
%TO.C,R9*%
X119380000Y-107470000D03*
G36*
G01*
X118579999Y-101820000D02*
X120180001Y-101820000D01*
G75*
G02*
X120430000Y-102069999I0J-249999D01*
G01*
X120430000Y-103670001D01*
G75*
G02*
X120180001Y-103920000I-249999J0D01*
G01*
X118579999Y-103920000D01*
G75*
G02*
X118330000Y-103670001I0J249999D01*
G01*
X118330000Y-102069999D01*
G75*
G02*
X118579999Y-101820000I249999J0D01*
G01*
G37*
%TD*%
%TO.C,R8*%
X119380000Y-92230000D03*
G36*
G01*
X118579999Y-86580000D02*
X120180001Y-86580000D01*
G75*
G02*
X120430000Y-86829999I0J-249999D01*
G01*
X120430000Y-88430001D01*
G75*
G02*
X120180001Y-88680000I-249999J0D01*
G01*
X118579999Y-88680000D01*
G75*
G02*
X118330000Y-88430001I0J249999D01*
G01*
X118330000Y-86829999D01*
G75*
G02*
X118579999Y-86580000I249999J0D01*
G01*
G37*
%TD*%
%TO.C,R7*%
X119380000Y-76990000D03*
G36*
G01*
X118579999Y-71340000D02*
X120180001Y-71340000D01*
G75*
G02*
X120430000Y-71589999I0J-249999D01*
G01*
X120430000Y-73190001D01*
G75*
G02*
X120180001Y-73440000I-249999J0D01*
G01*
X118579999Y-73440000D01*
G75*
G02*
X118330000Y-73190001I0J249999D01*
G01*
X118330000Y-71589999D01*
G75*
G02*
X118579999Y-71340000I249999J0D01*
G01*
G37*
%TD*%
%TO.C,R6*%
X88110000Y-102870000D03*
G36*
G01*
X93760000Y-102069999D02*
X93760000Y-103670001D01*
G75*
G02*
X93510001Y-103920000I-249999J0D01*
G01*
X91909999Y-103920000D01*
G75*
G02*
X91660000Y-103670001I0J249999D01*
G01*
X91660000Y-102069999D01*
G75*
G02*
X91909999Y-101820000I249999J0D01*
G01*
X93510001Y-101820000D01*
G75*
G02*
X93760000Y-102069999I0J-249999D01*
G01*
G37*
%TD*%
%TO.C,R5*%
X88110000Y-110490000D03*
G36*
G01*
X93760000Y-109689999D02*
X93760000Y-111290001D01*
G75*
G02*
X93510001Y-111540000I-249999J0D01*
G01*
X91909999Y-111540000D01*
G75*
G02*
X91660000Y-111290001I0J249999D01*
G01*
X91660000Y-109689999D01*
G75*
G02*
X91909999Y-109440000I249999J0D01*
G01*
X93510001Y-109440000D01*
G75*
G02*
X93760000Y-109689999I0J-249999D01*
G01*
G37*
%TD*%
%TO.C,R4*%
X88110000Y-87630000D03*
G36*
G01*
X93760000Y-86829999D02*
X93760000Y-88430001D01*
G75*
G02*
X93510001Y-88680000I-249999J0D01*
G01*
X91909999Y-88680000D01*
G75*
G02*
X91660000Y-88430001I0J249999D01*
G01*
X91660000Y-86829999D01*
G75*
G02*
X91909999Y-86580000I249999J0D01*
G01*
X93510001Y-86580000D01*
G75*
G02*
X93760000Y-86829999I0J-249999D01*
G01*
G37*
%TD*%
%TO.C,R3*%
X88110000Y-95250000D03*
G36*
G01*
X93760000Y-94449999D02*
X93760000Y-96050001D01*
G75*
G02*
X93510001Y-96300000I-249999J0D01*
G01*
X91909999Y-96300000D01*
G75*
G02*
X91660000Y-96050001I0J249999D01*
G01*
X91660000Y-94449999D01*
G75*
G02*
X91909999Y-94200000I249999J0D01*
G01*
X93510001Y-94200000D01*
G75*
G02*
X93760000Y-94449999I0J-249999D01*
G01*
G37*
%TD*%
%TO.C,R2*%
X88110000Y-72390000D03*
G36*
G01*
X93760000Y-71589999D02*
X93760000Y-73190001D01*
G75*
G02*
X93510001Y-73440000I-249999J0D01*
G01*
X91909999Y-73440000D01*
G75*
G02*
X91660000Y-73190001I0J249999D01*
G01*
X91660000Y-71589999D01*
G75*
G02*
X91909999Y-71340000I249999J0D01*
G01*
X93510001Y-71340000D01*
G75*
G02*
X93760000Y-71589999I0J-249999D01*
G01*
G37*
%TD*%
%TO.C,R1*%
X88110000Y-80010000D03*
G36*
G01*
X93760000Y-79209999D02*
X93760000Y-80810001D01*
G75*
G02*
X93510001Y-81060000I-249999J0D01*
G01*
X91909999Y-81060000D01*
G75*
G02*
X91660000Y-80810001I0J249999D01*
G01*
X91660000Y-79209999D01*
G75*
G02*
X91909999Y-78960000I249999J0D01*
G01*
X93510001Y-78960000D01*
G75*
G02*
X93760000Y-79209999I0J-249999D01*
G01*
G37*
%TD*%
D10*
%TO.C,J5*%
X113030000Y-87630000D03*
X105410000Y-95250000D03*
X113030000Y-90170000D03*
X105410000Y-92710000D03*
X113030000Y-92710000D03*
X105410000Y-90170000D03*
X113030000Y-95250000D03*
D11*
X105410000Y-87630000D03*
%TD*%
D10*
%TO.C,J4*%
X113030000Y-72390000D03*
X105410000Y-80010000D03*
X113030000Y-74930000D03*
X105410000Y-77470000D03*
X113030000Y-77470000D03*
X105410000Y-74930000D03*
X113030000Y-80010000D03*
D11*
X105410000Y-72390000D03*
%TD*%
D19*
%TO.C,J3*%
X72390000Y-100330000D03*
X72390000Y-105410000D03*
X77470000Y-105410000D03*
X77470000Y-100330000D03*
D20*
X74930000Y-102870000D03*
%TD*%
D19*
%TO.C,J2*%
X72390000Y-86360000D03*
X72390000Y-91440000D03*
X77470000Y-91440000D03*
X77470000Y-86360000D03*
D20*
X74930000Y-88900000D03*
%TD*%
D19*
%TO.C,J1*%
X72390000Y-72390000D03*
X72390000Y-77470000D03*
X77470000Y-77470000D03*
X77470000Y-72390000D03*
D20*
X74930000Y-74930000D03*
%TD*%
D14*
%TO.C,D4*%
X190500000Y-107950000D03*
X189230000Y-107950000D03*
X187960000Y-107950000D03*
D15*
X186690000Y-107950000D03*
%TD*%
D14*
%TO.C,D2*%
X190500000Y-77470000D03*
X189230000Y-77470000D03*
X187960000Y-77470000D03*
D15*
X186690000Y-77470000D03*
%TD*%
D14*
%TO.C,D1*%
X158750000Y-77470000D03*
X157480000Y-77470000D03*
X156210000Y-77470000D03*
D15*
X154940000Y-77470000D03*
%TD*%
M02*
